G04 (created by PCBNEW (2013-mar-13)-testing) date Fri 03 May 2013 14:03:15 BST*
%MOIN*%
G04 Gerber Fmt 3.4, Leading zero omitted, Abs format*
%FSLAX34Y34*%
G01*
G70*
G90*
G04 APERTURE LIST*
%ADD10C,0.006*%
%ADD11C,0.00984252*%
%ADD12R,0.06X0.08*%
%ADD13R,0.02X0.05*%
%ADD14R,0.055X0.035*%
%ADD15R,0.0165354X0.0669291*%
G04 APERTURE END LIST*
G54D10*
G54D11*
X23138Y-28141D02*
X23194Y-28159D01*
X23213Y-28178D01*
X23232Y-28216D01*
X23232Y-28272D01*
X23213Y-28309D01*
X23194Y-28328D01*
X23157Y-28347D01*
X23007Y-28347D01*
X23007Y-27953D01*
X23138Y-27953D01*
X23175Y-27972D01*
X23194Y-27991D01*
X23213Y-28028D01*
X23213Y-28066D01*
X23194Y-28103D01*
X23175Y-28122D01*
X23138Y-28141D01*
X23007Y-28141D01*
X23569Y-28347D02*
X23569Y-28141D01*
X23550Y-28103D01*
X23513Y-28084D01*
X23438Y-28084D01*
X23400Y-28103D01*
X23569Y-28328D02*
X23532Y-28347D01*
X23438Y-28347D01*
X23400Y-28328D01*
X23382Y-28291D01*
X23382Y-28253D01*
X23400Y-28216D01*
X23438Y-28197D01*
X23532Y-28197D01*
X23569Y-28178D01*
X23925Y-28328D02*
X23888Y-28347D01*
X23813Y-28347D01*
X23775Y-28328D01*
X23757Y-28309D01*
X23738Y-28272D01*
X23738Y-28159D01*
X23757Y-28122D01*
X23775Y-28103D01*
X23813Y-28084D01*
X23888Y-28084D01*
X23925Y-28103D01*
X24094Y-28347D02*
X24094Y-27953D01*
X24131Y-28197D02*
X24244Y-28347D01*
X24244Y-28084D02*
X24094Y-28234D01*
X24694Y-28328D02*
X24750Y-28347D01*
X24844Y-28347D01*
X24881Y-28328D01*
X24900Y-28309D01*
X24919Y-28272D01*
X24919Y-28234D01*
X24900Y-28197D01*
X24881Y-28178D01*
X24844Y-28159D01*
X24769Y-28141D01*
X24731Y-28122D01*
X24713Y-28103D01*
X24694Y-28066D01*
X24694Y-28028D01*
X24713Y-27991D01*
X24731Y-27972D01*
X24769Y-27953D01*
X24863Y-27953D01*
X24919Y-27972D01*
X25144Y-28347D02*
X25106Y-28328D01*
X25088Y-28309D01*
X25069Y-28272D01*
X25069Y-28159D01*
X25088Y-28122D01*
X25106Y-28103D01*
X25144Y-28084D01*
X25200Y-28084D01*
X25238Y-28103D01*
X25256Y-28122D01*
X25275Y-28159D01*
X25275Y-28272D01*
X25256Y-28309D01*
X25238Y-28328D01*
X25200Y-28347D01*
X25144Y-28347D01*
X25500Y-28347D02*
X25463Y-28328D01*
X25444Y-28291D01*
X25444Y-27953D01*
X25819Y-28347D02*
X25819Y-27953D01*
X25819Y-28328D02*
X25781Y-28347D01*
X25706Y-28347D01*
X25669Y-28328D01*
X25650Y-28309D01*
X25631Y-28272D01*
X25631Y-28159D01*
X25650Y-28122D01*
X25669Y-28103D01*
X25706Y-28084D01*
X25781Y-28084D01*
X25819Y-28103D01*
X26156Y-28328D02*
X26119Y-28347D01*
X26044Y-28347D01*
X26006Y-28328D01*
X25988Y-28291D01*
X25988Y-28141D01*
X26006Y-28103D01*
X26044Y-28084D01*
X26119Y-28084D01*
X26156Y-28103D01*
X26175Y-28141D01*
X26175Y-28178D01*
X25988Y-28216D01*
X26344Y-28347D02*
X26344Y-28084D01*
X26344Y-28159D02*
X26362Y-28122D01*
X26381Y-28103D01*
X26419Y-28084D01*
X26456Y-28084D01*
X26887Y-28347D02*
X26887Y-27953D01*
X27037Y-27953D01*
X27075Y-27972D01*
X27094Y-27991D01*
X27112Y-28028D01*
X27112Y-28084D01*
X27094Y-28122D01*
X27075Y-28141D01*
X27037Y-28159D01*
X26887Y-28159D01*
X27450Y-28347D02*
X27450Y-28141D01*
X27431Y-28103D01*
X27394Y-28084D01*
X27319Y-28084D01*
X27281Y-28103D01*
X27450Y-28328D02*
X27412Y-28347D01*
X27319Y-28347D01*
X27281Y-28328D01*
X27262Y-28291D01*
X27262Y-28253D01*
X27281Y-28216D01*
X27319Y-28197D01*
X27412Y-28197D01*
X27450Y-28178D01*
X27619Y-28328D02*
X27656Y-28347D01*
X27731Y-28347D01*
X27769Y-28328D01*
X27787Y-28291D01*
X27787Y-28272D01*
X27769Y-28234D01*
X27731Y-28216D01*
X27675Y-28216D01*
X27637Y-28197D01*
X27619Y-28159D01*
X27619Y-28141D01*
X27637Y-28103D01*
X27675Y-28084D01*
X27731Y-28084D01*
X27769Y-28103D01*
X27900Y-28084D02*
X28050Y-28084D01*
X27956Y-27953D02*
X27956Y-28291D01*
X27975Y-28328D01*
X28012Y-28347D01*
X28050Y-28347D01*
X28331Y-28328D02*
X28293Y-28347D01*
X28218Y-28347D01*
X28181Y-28328D01*
X28162Y-28291D01*
X28162Y-28141D01*
X28181Y-28103D01*
X28218Y-28084D01*
X28293Y-28084D01*
X28331Y-28103D01*
X28350Y-28141D01*
X28350Y-28178D01*
X28162Y-28216D01*
G54D12*
X18283Y-53964D03*
X19583Y-53964D03*
G54D13*
X16251Y-43756D03*
X15751Y-43756D03*
X15251Y-43756D03*
X14751Y-43756D03*
X14251Y-43756D03*
X13751Y-43756D03*
X13251Y-43756D03*
X12751Y-43756D03*
X12251Y-43756D03*
X11751Y-43756D03*
X11751Y-39956D03*
X12251Y-39956D03*
X12751Y-39956D03*
X13251Y-39956D03*
X13751Y-39956D03*
X14251Y-39956D03*
X14751Y-39956D03*
X15251Y-39956D03*
X15751Y-39956D03*
X16251Y-39956D03*
X16251Y-38610D03*
X15751Y-38610D03*
X15251Y-38610D03*
X14751Y-38610D03*
X14251Y-38610D03*
X13751Y-38610D03*
X13251Y-38610D03*
X12751Y-38610D03*
X12251Y-38610D03*
X11751Y-38610D03*
X11751Y-34810D03*
X12251Y-34810D03*
X12751Y-34810D03*
X13251Y-34810D03*
X13751Y-34810D03*
X14251Y-34810D03*
X14751Y-34810D03*
X15251Y-34810D03*
X15751Y-34810D03*
X16251Y-34810D03*
G54D14*
X19500Y-47125D03*
X19500Y-47875D03*
X18169Y-47725D03*
X18169Y-46975D03*
G54D15*
X18082Y-49570D03*
X18397Y-49570D03*
X18712Y-49570D03*
X19027Y-49570D03*
X18082Y-48594D03*
X18397Y-48594D03*
X18712Y-48594D03*
X19027Y-48594D03*
X20366Y-56362D03*
X20681Y-56362D03*
X20996Y-56362D03*
X21311Y-56362D03*
X20366Y-55385D03*
X20681Y-55385D03*
X20996Y-55385D03*
X21311Y-55385D03*
M02*
