G04 (created by PCBNEW (2013-mar-13)-testing) date Fri 03 May 2013 14:03:15 BST*
%MOIN*%
G04 Gerber Fmt 3.4, Leading zero omitted, Abs format*
%FSLAX34Y34*%
G01*
G70*
G90*
G04 APERTURE LIST*
%ADD10C,0.006*%
%ADD11C,0.00984252*%
%ADD12R,0.0590551X0.0314961*%
%ADD13R,0.0118X0.0256*%
%ADD14R,0.08X0.06*%
%ADD15R,0.035X0.055*%
%ADD16R,0.045X0.025*%
%ADD17R,0.025X0.045*%
%ADD18R,0.0787X0.0236*%
%ADD19R,0.0118X0.0512*%
%ADD20R,0.0787X0.0177*%
%ADD21R,0.0177X0.0787*%
%ADD22R,0.012X0.02*%
%ADD23R,0.055X0.035*%
%ADD24R,0.0236X0.0551*%
G04 APERTURE END LIST*
G54D10*
G54D11*
X23082Y-27088D02*
X22950Y-27088D01*
X22950Y-27294D02*
X22950Y-26900D01*
X23138Y-26900D01*
X23288Y-27294D02*
X23288Y-27031D01*
X23288Y-27106D02*
X23307Y-27069D01*
X23325Y-27050D01*
X23363Y-27031D01*
X23400Y-27031D01*
X23588Y-27294D02*
X23550Y-27275D01*
X23532Y-27256D01*
X23513Y-27219D01*
X23513Y-27106D01*
X23532Y-27069D01*
X23550Y-27050D01*
X23588Y-27031D01*
X23644Y-27031D01*
X23682Y-27050D01*
X23700Y-27069D01*
X23719Y-27106D01*
X23719Y-27219D01*
X23700Y-27256D01*
X23682Y-27275D01*
X23644Y-27294D01*
X23588Y-27294D01*
X23888Y-27031D02*
X23888Y-27294D01*
X23888Y-27069D02*
X23907Y-27050D01*
X23944Y-27031D01*
X24000Y-27031D01*
X24038Y-27050D01*
X24056Y-27088D01*
X24056Y-27294D01*
X24188Y-27031D02*
X24338Y-27031D01*
X24244Y-26900D02*
X24244Y-27238D01*
X24263Y-27275D01*
X24300Y-27294D01*
X24338Y-27294D01*
X24750Y-27275D02*
X24806Y-27294D01*
X24900Y-27294D01*
X24938Y-27275D01*
X24956Y-27256D01*
X24975Y-27219D01*
X24975Y-27181D01*
X24956Y-27144D01*
X24938Y-27125D01*
X24900Y-27106D01*
X24825Y-27088D01*
X24788Y-27069D01*
X24769Y-27050D01*
X24750Y-27013D01*
X24750Y-26975D01*
X24769Y-26938D01*
X24788Y-26919D01*
X24825Y-26900D01*
X24919Y-26900D01*
X24975Y-26919D01*
X25200Y-27294D02*
X25163Y-27275D01*
X25144Y-27256D01*
X25125Y-27219D01*
X25125Y-27106D01*
X25144Y-27069D01*
X25163Y-27050D01*
X25200Y-27031D01*
X25256Y-27031D01*
X25294Y-27050D01*
X25313Y-27069D01*
X25331Y-27106D01*
X25331Y-27219D01*
X25313Y-27256D01*
X25294Y-27275D01*
X25256Y-27294D01*
X25200Y-27294D01*
X25556Y-27294D02*
X25519Y-27275D01*
X25500Y-27238D01*
X25500Y-26900D01*
X25875Y-27294D02*
X25875Y-26900D01*
X25875Y-27275D02*
X25838Y-27294D01*
X25763Y-27294D01*
X25725Y-27275D01*
X25706Y-27256D01*
X25688Y-27219D01*
X25688Y-27106D01*
X25706Y-27069D01*
X25725Y-27050D01*
X25763Y-27031D01*
X25838Y-27031D01*
X25875Y-27050D01*
X26212Y-27275D02*
X26175Y-27294D01*
X26100Y-27294D01*
X26062Y-27275D01*
X26044Y-27238D01*
X26044Y-27088D01*
X26062Y-27050D01*
X26100Y-27031D01*
X26175Y-27031D01*
X26212Y-27050D01*
X26231Y-27088D01*
X26231Y-27125D01*
X26044Y-27163D01*
X26400Y-27294D02*
X26400Y-27031D01*
X26400Y-27106D02*
X26419Y-27069D01*
X26437Y-27050D01*
X26475Y-27031D01*
X26512Y-27031D01*
X26944Y-27294D02*
X26944Y-26900D01*
X27094Y-26900D01*
X27131Y-26919D01*
X27150Y-26938D01*
X27169Y-26975D01*
X27169Y-27031D01*
X27150Y-27069D01*
X27131Y-27088D01*
X27094Y-27106D01*
X26944Y-27106D01*
X27506Y-27294D02*
X27506Y-27088D01*
X27487Y-27050D01*
X27450Y-27031D01*
X27375Y-27031D01*
X27337Y-27050D01*
X27506Y-27275D02*
X27469Y-27294D01*
X27375Y-27294D01*
X27337Y-27275D01*
X27319Y-27238D01*
X27319Y-27200D01*
X27337Y-27163D01*
X27375Y-27144D01*
X27469Y-27144D01*
X27506Y-27125D01*
X27675Y-27275D02*
X27712Y-27294D01*
X27787Y-27294D01*
X27825Y-27275D01*
X27844Y-27238D01*
X27844Y-27219D01*
X27825Y-27181D01*
X27787Y-27163D01*
X27731Y-27163D01*
X27694Y-27144D01*
X27675Y-27106D01*
X27675Y-27088D01*
X27694Y-27050D01*
X27731Y-27031D01*
X27787Y-27031D01*
X27825Y-27050D01*
X27956Y-27031D02*
X28106Y-27031D01*
X28012Y-26900D02*
X28012Y-27238D01*
X28031Y-27275D01*
X28068Y-27294D01*
X28106Y-27294D01*
X28387Y-27275D02*
X28350Y-27294D01*
X28275Y-27294D01*
X28237Y-27275D01*
X28218Y-27238D01*
X28218Y-27088D01*
X28237Y-27050D01*
X28275Y-27031D01*
X28350Y-27031D01*
X28387Y-27050D01*
X28406Y-27088D01*
X28406Y-27125D01*
X28218Y-27163D01*
G54D12*
X16574Y-25295D03*
X16574Y-25767D03*
X17952Y-25767D03*
X17952Y-25295D03*
G54D13*
X15535Y-28051D03*
X15338Y-28051D03*
X15141Y-28051D03*
X14944Y-28051D03*
X14944Y-28504D03*
X15141Y-28504D03*
X15338Y-28504D03*
X15535Y-28504D03*
G54D14*
X17736Y-39537D03*
X17736Y-40837D03*
G54D15*
X11695Y-30070D03*
X12445Y-30070D03*
G54D16*
X18809Y-39955D03*
X18809Y-40555D03*
G54D17*
X17674Y-44673D03*
X17074Y-44673D03*
G54D18*
X16302Y-43727D03*
X16302Y-43412D03*
X16302Y-43097D03*
X16302Y-42782D03*
X16302Y-42467D03*
X16302Y-42152D03*
X16302Y-41837D03*
X16302Y-41522D03*
X16302Y-41207D03*
X16302Y-40892D03*
X16302Y-40577D03*
X16302Y-40262D03*
X16302Y-39947D03*
X16302Y-39633D03*
X16302Y-39318D03*
X16302Y-39003D03*
X16302Y-38688D03*
X16302Y-38373D03*
X16302Y-38058D03*
X16302Y-37743D03*
X16302Y-37428D03*
X16302Y-37113D03*
X16302Y-36798D03*
X16302Y-36483D03*
X16302Y-36168D03*
X16302Y-35853D03*
X16302Y-35538D03*
X11971Y-35538D03*
X11971Y-35853D03*
X11971Y-36168D03*
X11971Y-36483D03*
X11971Y-36798D03*
X11971Y-37113D03*
X11971Y-37428D03*
X11971Y-37743D03*
X11971Y-38058D03*
X11971Y-38373D03*
X11971Y-38688D03*
X11971Y-39003D03*
X11971Y-39318D03*
X11971Y-39633D03*
X11971Y-39947D03*
X11971Y-40262D03*
X11971Y-40577D03*
X11971Y-40892D03*
X11971Y-41207D03*
X11971Y-41522D03*
X11971Y-41837D03*
X11971Y-42152D03*
X11971Y-42467D03*
X11971Y-42782D03*
X11971Y-43097D03*
X11971Y-43412D03*
X11971Y-43727D03*
G54D19*
X19496Y-53648D03*
X19246Y-53648D03*
X18986Y-53648D03*
X18736Y-53648D03*
X18476Y-53648D03*
X18221Y-53648D03*
X17966Y-53648D03*
X17966Y-55848D03*
X18221Y-55848D03*
X18476Y-55848D03*
X18736Y-55848D03*
X18991Y-55848D03*
X19246Y-55848D03*
X19501Y-55848D03*
X20602Y-30504D03*
X20352Y-30504D03*
X20092Y-30504D03*
X19842Y-30504D03*
X19582Y-30504D03*
X19327Y-30504D03*
X19072Y-30504D03*
X19072Y-32704D03*
X19327Y-32704D03*
X19582Y-32704D03*
X19842Y-32704D03*
X20097Y-32704D03*
X20352Y-32704D03*
X20607Y-32704D03*
G54D20*
X16879Y-48447D03*
X16879Y-48132D03*
X16879Y-47817D03*
X16879Y-47502D03*
X16879Y-47187D03*
X16879Y-46872D03*
X16879Y-46557D03*
X16879Y-46242D03*
X20645Y-46244D03*
X20645Y-48454D03*
X20645Y-48134D03*
X20645Y-47814D03*
X20645Y-47504D03*
X20645Y-47184D03*
X20645Y-46874D03*
X20645Y-46554D03*
G54D21*
X17663Y-45454D03*
X17977Y-45454D03*
X18293Y-45454D03*
X18607Y-45454D03*
X18923Y-45454D03*
X19237Y-45454D03*
X19553Y-45454D03*
X19867Y-45454D03*
X17665Y-49234D03*
X17975Y-49234D03*
X18295Y-49234D03*
X18605Y-49234D03*
X18915Y-49234D03*
X19235Y-49234D03*
X19555Y-49234D03*
X19875Y-49234D03*
G54D22*
X13836Y-28738D03*
X14336Y-28738D03*
X13836Y-27938D03*
X14086Y-28738D03*
X14336Y-27938D03*
X15482Y-29261D03*
X14982Y-29261D03*
X15482Y-30061D03*
X15232Y-29261D03*
X14982Y-30061D03*
G54D23*
X16303Y-45426D03*
X16303Y-44676D03*
G54D12*
X16531Y-26464D03*
X16531Y-26937D03*
X17909Y-26937D03*
X17909Y-26464D03*
G54D24*
X20769Y-38581D03*
X20769Y-36481D03*
X20269Y-38581D03*
X19769Y-38581D03*
X19269Y-38581D03*
X20269Y-36481D03*
X19769Y-36481D03*
X19269Y-36481D03*
M02*
