G04 (created by PCBNEW (2013-mar-13)-testing) date Fri 03 May 2013 14:03:15 BST*
%MOIN*%
G04 Gerber Fmt 3.4, Leading zero omitted, Abs format*
%FSLAX34Y34*%
G01*
G70*
G90*
G04 APERTURE LIST*
%ADD10C,0.006*%
%ADD11C,0.00984252*%
G04 APERTURE END LIST*
G54D10*
G54D11*
X23130Y-34146D02*
X23112Y-34165D01*
X23055Y-34184D01*
X23018Y-34184D01*
X22962Y-34165D01*
X22924Y-34127D01*
X22905Y-34090D01*
X22887Y-34015D01*
X22887Y-33959D01*
X22905Y-33884D01*
X22924Y-33846D01*
X22962Y-33809D01*
X23018Y-33790D01*
X23055Y-33790D01*
X23112Y-33809D01*
X23130Y-33827D01*
X23355Y-34184D02*
X23318Y-34165D01*
X23299Y-34146D01*
X23280Y-34109D01*
X23280Y-33996D01*
X23299Y-33959D01*
X23318Y-33940D01*
X23355Y-33921D01*
X23412Y-33921D01*
X23449Y-33940D01*
X23468Y-33959D01*
X23487Y-33996D01*
X23487Y-34109D01*
X23468Y-34146D01*
X23449Y-34165D01*
X23412Y-34184D01*
X23355Y-34184D01*
X23655Y-34184D02*
X23655Y-33921D01*
X23655Y-33959D02*
X23674Y-33940D01*
X23712Y-33921D01*
X23768Y-33921D01*
X23805Y-33940D01*
X23824Y-33977D01*
X23824Y-34184D01*
X23824Y-33977D02*
X23843Y-33940D01*
X23880Y-33921D01*
X23937Y-33921D01*
X23974Y-33940D01*
X23993Y-33977D01*
X23993Y-34184D01*
X24180Y-34184D02*
X24180Y-33921D01*
X24180Y-33959D02*
X24199Y-33940D01*
X24236Y-33921D01*
X24293Y-33921D01*
X24330Y-33940D01*
X24349Y-33977D01*
X24349Y-34184D01*
X24349Y-33977D02*
X24368Y-33940D01*
X24405Y-33921D01*
X24461Y-33921D01*
X24499Y-33940D01*
X24518Y-33977D01*
X24518Y-34184D01*
X24855Y-34165D02*
X24818Y-34184D01*
X24743Y-34184D01*
X24705Y-34165D01*
X24686Y-34127D01*
X24686Y-33977D01*
X24705Y-33940D01*
X24743Y-33921D01*
X24818Y-33921D01*
X24855Y-33940D01*
X24874Y-33977D01*
X24874Y-34015D01*
X24686Y-34052D01*
X25043Y-33921D02*
X25043Y-34184D01*
X25043Y-33959D02*
X25061Y-33940D01*
X25099Y-33921D01*
X25155Y-33921D01*
X25193Y-33940D01*
X25211Y-33977D01*
X25211Y-34184D01*
X25343Y-33921D02*
X25493Y-33921D01*
X25399Y-33790D02*
X25399Y-34127D01*
X25418Y-34165D01*
X25455Y-34184D01*
X25493Y-34184D01*
X25605Y-34165D02*
X25643Y-34184D01*
X25718Y-34184D01*
X25755Y-34165D01*
X25774Y-34127D01*
X25774Y-34109D01*
X25755Y-34071D01*
X25718Y-34052D01*
X25661Y-34052D01*
X25624Y-34034D01*
X25605Y-33996D01*
X25605Y-33977D01*
X25624Y-33940D01*
X25661Y-33921D01*
X25718Y-33921D01*
X25755Y-33940D01*
M02*
