G04 (created by PCBNEW (2013-mar-13)-testing) date Fri 03 May 2013 14:03:15 BST*
%MOIN*%
G04 Gerber Fmt 3.4, Leading zero omitted, Abs format*
%FSLAX34Y34*%
G01*
G70*
G90*
G04 APERTURE LIST*
%ADD10C,0.006*%
%ADD11C,0.00984252*%
%ADD12C,0.00590551*%
%ADD13C,0.00787402*%
%ADD14C,0.005*%
%ADD15C,0.0039*%
%ADD16C,0.127953*%
%ADD17C,0.285433*%
%ADD18R,0.0698425X0.0898425*%
%ADD19R,0.0698425X0.0698425*%
%ADD20C,0.0698425*%
%ADD21R,0.0298425X0.0598425*%
%ADD22R,0.0648425X0.0448425*%
%ADD23R,0.026378X0.0767717*%
G04 APERTURE END LIST*
G54D10*
G54D11*
X23038Y-30473D02*
X23094Y-30492D01*
X23113Y-30511D01*
X23132Y-30548D01*
X23132Y-30605D01*
X23113Y-30642D01*
X23094Y-30661D01*
X23057Y-30680D01*
X22907Y-30680D01*
X22907Y-30286D01*
X23038Y-30286D01*
X23076Y-30305D01*
X23094Y-30323D01*
X23113Y-30361D01*
X23113Y-30398D01*
X23094Y-30436D01*
X23076Y-30455D01*
X23038Y-30473D01*
X22907Y-30473D01*
X23469Y-30680D02*
X23469Y-30473D01*
X23450Y-30436D01*
X23413Y-30417D01*
X23338Y-30417D01*
X23300Y-30436D01*
X23469Y-30661D02*
X23432Y-30680D01*
X23338Y-30680D01*
X23300Y-30661D01*
X23282Y-30623D01*
X23282Y-30586D01*
X23300Y-30548D01*
X23338Y-30530D01*
X23432Y-30530D01*
X23469Y-30511D01*
X23825Y-30661D02*
X23788Y-30680D01*
X23713Y-30680D01*
X23675Y-30661D01*
X23657Y-30642D01*
X23638Y-30605D01*
X23638Y-30492D01*
X23657Y-30455D01*
X23675Y-30436D01*
X23713Y-30417D01*
X23788Y-30417D01*
X23825Y-30436D01*
X23994Y-30680D02*
X23994Y-30286D01*
X24032Y-30530D02*
X24144Y-30680D01*
X24144Y-30417D02*
X23994Y-30567D01*
X24594Y-30661D02*
X24632Y-30680D01*
X24707Y-30680D01*
X24744Y-30661D01*
X24763Y-30623D01*
X24763Y-30605D01*
X24744Y-30567D01*
X24707Y-30548D01*
X24650Y-30548D01*
X24613Y-30530D01*
X24594Y-30492D01*
X24594Y-30473D01*
X24613Y-30436D01*
X24650Y-30417D01*
X24707Y-30417D01*
X24744Y-30436D01*
X24932Y-30680D02*
X24932Y-30417D01*
X24932Y-30286D02*
X24913Y-30305D01*
X24932Y-30323D01*
X24950Y-30305D01*
X24932Y-30286D01*
X24932Y-30323D01*
X25175Y-30680D02*
X25138Y-30661D01*
X25119Y-30623D01*
X25119Y-30286D01*
X25325Y-30680D02*
X25325Y-30286D01*
X25363Y-30530D02*
X25475Y-30680D01*
X25475Y-30417D02*
X25325Y-30567D01*
X25625Y-30661D02*
X25663Y-30680D01*
X25738Y-30680D01*
X25775Y-30661D01*
X25794Y-30623D01*
X25794Y-30605D01*
X25775Y-30567D01*
X25738Y-30548D01*
X25681Y-30548D01*
X25644Y-30530D01*
X25625Y-30492D01*
X25625Y-30473D01*
X25644Y-30436D01*
X25681Y-30417D01*
X25738Y-30417D01*
X25775Y-30436D01*
X26131Y-30661D02*
X26094Y-30680D01*
X26019Y-30680D01*
X25981Y-30661D01*
X25963Y-30642D01*
X25944Y-30605D01*
X25944Y-30492D01*
X25963Y-30455D01*
X25981Y-30436D01*
X26019Y-30417D01*
X26094Y-30417D01*
X26131Y-30436D01*
X26300Y-30680D02*
X26300Y-30417D01*
X26300Y-30492D02*
X26319Y-30455D01*
X26338Y-30436D01*
X26375Y-30417D01*
X26413Y-30417D01*
X26694Y-30661D02*
X26656Y-30680D01*
X26581Y-30680D01*
X26544Y-30661D01*
X26525Y-30623D01*
X26525Y-30473D01*
X26544Y-30436D01*
X26581Y-30417D01*
X26656Y-30417D01*
X26694Y-30436D01*
X26713Y-30473D01*
X26713Y-30511D01*
X26525Y-30548D01*
X27031Y-30661D02*
X26994Y-30680D01*
X26919Y-30680D01*
X26881Y-30661D01*
X26863Y-30623D01*
X26863Y-30473D01*
X26881Y-30436D01*
X26919Y-30417D01*
X26994Y-30417D01*
X27031Y-30436D01*
X27050Y-30473D01*
X27050Y-30511D01*
X26863Y-30548D01*
X27219Y-30417D02*
X27219Y-30680D01*
X27219Y-30455D02*
X27238Y-30436D01*
X27275Y-30417D01*
X27331Y-30417D01*
X27369Y-30436D01*
X27387Y-30473D01*
X27387Y-30680D01*
X19266Y-58809D02*
X19191Y-58809D01*
X19153Y-58828D01*
X19116Y-58866D01*
X19097Y-58941D01*
X19097Y-59072D01*
X19116Y-59147D01*
X19153Y-59184D01*
X19191Y-59203D01*
X19266Y-59203D01*
X19303Y-59184D01*
X19341Y-59147D01*
X19359Y-59072D01*
X19359Y-58941D01*
X19341Y-58866D01*
X19303Y-58828D01*
X19266Y-58809D01*
X18928Y-59203D02*
X18928Y-58809D01*
X18778Y-58809D01*
X18741Y-58828D01*
X18722Y-58847D01*
X18703Y-58884D01*
X18703Y-58941D01*
X18722Y-58978D01*
X18741Y-58997D01*
X18778Y-59016D01*
X18928Y-59016D01*
X18534Y-58997D02*
X18403Y-58997D01*
X18347Y-59203D02*
X18534Y-59203D01*
X18534Y-58809D01*
X18347Y-58809D01*
X17953Y-59203D02*
X18084Y-59016D01*
X18178Y-59203D02*
X18178Y-58809D01*
X18028Y-58809D01*
X17991Y-58828D01*
X17972Y-58847D01*
X17953Y-58884D01*
X17953Y-58941D01*
X17972Y-58978D01*
X17991Y-58997D01*
X18028Y-59016D01*
X18178Y-59016D01*
X17803Y-59091D02*
X17616Y-59091D01*
X17841Y-59203D02*
X17709Y-58809D01*
X17578Y-59203D01*
X17503Y-58809D02*
X17278Y-58809D01*
X17391Y-59203D02*
X17391Y-58809D01*
X17147Y-59203D02*
X17147Y-58809D01*
X16960Y-59203D02*
X16960Y-58809D01*
X16735Y-59203D01*
X16735Y-58809D01*
X16341Y-58828D02*
X16378Y-58809D01*
X16435Y-58809D01*
X16491Y-58828D01*
X16528Y-58866D01*
X16547Y-58903D01*
X16566Y-58978D01*
X16566Y-59034D01*
X16547Y-59109D01*
X16528Y-59147D01*
X16491Y-59184D01*
X16435Y-59203D01*
X16397Y-59203D01*
X16341Y-59184D01*
X16322Y-59166D01*
X16322Y-59034D01*
X16397Y-59034D01*
X15853Y-59203D02*
X15853Y-58809D01*
X15666Y-59203D02*
X15666Y-58809D01*
X15441Y-59203D01*
X15441Y-58809D01*
X15272Y-59184D02*
X15216Y-59203D01*
X15122Y-59203D01*
X15085Y-59184D01*
X15066Y-59166D01*
X15047Y-59128D01*
X15047Y-59091D01*
X15066Y-59053D01*
X15085Y-59034D01*
X15122Y-59016D01*
X15197Y-58997D01*
X15235Y-58978D01*
X15254Y-58959D01*
X15272Y-58922D01*
X15272Y-58884D01*
X15254Y-58847D01*
X15235Y-58828D01*
X15197Y-58809D01*
X15104Y-58809D01*
X15047Y-58828D01*
X14935Y-58809D02*
X14710Y-58809D01*
X14822Y-59203D02*
X14822Y-58809D01*
X14354Y-59203D02*
X14485Y-59016D01*
X14579Y-59203D02*
X14579Y-58809D01*
X14429Y-58809D01*
X14391Y-58828D01*
X14372Y-58847D01*
X14354Y-58884D01*
X14354Y-58941D01*
X14372Y-58978D01*
X14391Y-58997D01*
X14429Y-59016D01*
X14579Y-59016D01*
X14185Y-58809D02*
X14185Y-59128D01*
X14166Y-59166D01*
X14147Y-59184D01*
X14110Y-59203D01*
X14035Y-59203D01*
X13997Y-59184D01*
X13979Y-59166D01*
X13960Y-59128D01*
X13960Y-58809D01*
X13547Y-59166D02*
X13566Y-59184D01*
X13622Y-59203D01*
X13660Y-59203D01*
X13716Y-59184D01*
X13754Y-59147D01*
X13772Y-59109D01*
X13791Y-59034D01*
X13791Y-58978D01*
X13772Y-58903D01*
X13754Y-58866D01*
X13716Y-58828D01*
X13660Y-58809D01*
X13622Y-58809D01*
X13566Y-58828D01*
X13547Y-58847D01*
X13435Y-58809D02*
X13210Y-58809D01*
X13323Y-59203D02*
X13323Y-58809D01*
X13079Y-59203D02*
X13079Y-58809D01*
X12816Y-58809D02*
X12741Y-58809D01*
X12704Y-58828D01*
X12666Y-58866D01*
X12648Y-58941D01*
X12648Y-59072D01*
X12666Y-59147D01*
X12704Y-59184D01*
X12741Y-59203D01*
X12816Y-59203D01*
X12854Y-59184D01*
X12891Y-59147D01*
X12910Y-59072D01*
X12910Y-58941D01*
X12891Y-58866D01*
X12854Y-58828D01*
X12816Y-58809D01*
X12479Y-59203D02*
X12479Y-58809D01*
X12254Y-59203D01*
X12254Y-58809D01*
X12085Y-59184D02*
X12029Y-59203D01*
X11935Y-59203D01*
X11898Y-59184D01*
X11879Y-59166D01*
X11860Y-59128D01*
X11860Y-59091D01*
X11879Y-59053D01*
X11898Y-59034D01*
X11935Y-59016D01*
X12010Y-58997D01*
X12048Y-58978D01*
X12066Y-58959D01*
X12085Y-58922D01*
X12085Y-58884D01*
X12066Y-58847D01*
X12048Y-58828D01*
X12010Y-58809D01*
X11916Y-58809D01*
X11860Y-58828D01*
X19416Y-59647D02*
X19116Y-59647D01*
X19116Y-59759D02*
X19416Y-59759D01*
X18928Y-59647D02*
X18628Y-59647D01*
X18628Y-59759D02*
X18928Y-59759D01*
X18441Y-59647D02*
X18141Y-59647D01*
X18141Y-59759D02*
X18441Y-59759D01*
X17953Y-59647D02*
X17653Y-59647D01*
X17653Y-59759D02*
X17953Y-59759D01*
X17466Y-59647D02*
X17166Y-59647D01*
X17166Y-59759D02*
X17466Y-59759D01*
X16978Y-59647D02*
X16678Y-59647D01*
X16678Y-59759D02*
X16978Y-59759D01*
X16491Y-59647D02*
X16191Y-59647D01*
X16191Y-59759D02*
X16491Y-59759D01*
X16003Y-59647D02*
X15703Y-59647D01*
X15703Y-59759D02*
X16003Y-59759D01*
X15516Y-59647D02*
X15216Y-59647D01*
X15216Y-59759D02*
X15516Y-59759D01*
X15029Y-59647D02*
X14729Y-59647D01*
X14729Y-59759D02*
X15029Y-59759D01*
X14541Y-59647D02*
X14241Y-59647D01*
X14241Y-59759D02*
X14541Y-59759D01*
X14054Y-59647D02*
X13754Y-59647D01*
X13754Y-59759D02*
X14054Y-59759D01*
X13566Y-59647D02*
X13266Y-59647D01*
X13266Y-59759D02*
X13566Y-59759D01*
X13079Y-59647D02*
X12779Y-59647D01*
X12779Y-59759D02*
X13079Y-59759D01*
X12591Y-59647D02*
X12291Y-59647D01*
X12291Y-59759D02*
X12591Y-59759D01*
X12104Y-59647D02*
X11804Y-59647D01*
X11804Y-59759D02*
X12104Y-59759D01*
X19480Y-60217D02*
X19255Y-60217D01*
X19367Y-60611D02*
X19367Y-60217D01*
X19067Y-60611D02*
X19105Y-60592D01*
X19124Y-60573D01*
X19142Y-60536D01*
X19142Y-60423D01*
X19124Y-60386D01*
X19105Y-60367D01*
X19067Y-60348D01*
X19011Y-60348D01*
X18974Y-60367D01*
X18955Y-60386D01*
X18936Y-60423D01*
X18936Y-60536D01*
X18955Y-60573D01*
X18974Y-60592D01*
X19011Y-60611D01*
X19067Y-60611D01*
X18467Y-60348D02*
X18467Y-60742D01*
X18467Y-60367D02*
X18430Y-60348D01*
X18355Y-60348D01*
X18317Y-60367D01*
X18299Y-60386D01*
X18280Y-60423D01*
X18280Y-60536D01*
X18299Y-60573D01*
X18317Y-60592D01*
X18355Y-60611D01*
X18430Y-60611D01*
X18467Y-60592D01*
X18055Y-60611D02*
X18092Y-60592D01*
X18111Y-60573D01*
X18130Y-60536D01*
X18130Y-60423D01*
X18111Y-60386D01*
X18092Y-60367D01*
X18055Y-60348D01*
X17999Y-60348D01*
X17961Y-60367D01*
X17942Y-60386D01*
X17924Y-60423D01*
X17924Y-60536D01*
X17942Y-60573D01*
X17961Y-60592D01*
X17999Y-60611D01*
X18055Y-60611D01*
X17792Y-60348D02*
X17717Y-60611D01*
X17642Y-60423D01*
X17567Y-60611D01*
X17492Y-60348D01*
X17193Y-60592D02*
X17230Y-60611D01*
X17305Y-60611D01*
X17342Y-60592D01*
X17361Y-60554D01*
X17361Y-60404D01*
X17342Y-60367D01*
X17305Y-60348D01*
X17230Y-60348D01*
X17193Y-60367D01*
X17174Y-60404D01*
X17174Y-60442D01*
X17361Y-60479D01*
X17005Y-60611D02*
X17005Y-60348D01*
X17005Y-60423D02*
X16986Y-60386D01*
X16968Y-60367D01*
X16930Y-60348D01*
X16893Y-60348D01*
X16480Y-60592D02*
X16424Y-60611D01*
X16330Y-60611D01*
X16293Y-60592D01*
X16274Y-60573D01*
X16255Y-60536D01*
X16255Y-60498D01*
X16274Y-60461D01*
X16293Y-60442D01*
X16330Y-60423D01*
X16405Y-60404D01*
X16443Y-60386D01*
X16461Y-60367D01*
X16480Y-60329D01*
X16480Y-60292D01*
X16461Y-60254D01*
X16443Y-60236D01*
X16405Y-60217D01*
X16311Y-60217D01*
X16255Y-60236D01*
X16086Y-60611D02*
X16086Y-60217D01*
X15993Y-60217D01*
X15936Y-60236D01*
X15899Y-60273D01*
X15880Y-60311D01*
X15861Y-60386D01*
X15861Y-60442D01*
X15880Y-60517D01*
X15899Y-60554D01*
X15936Y-60592D01*
X15993Y-60611D01*
X16086Y-60611D01*
X15468Y-60611D02*
X15599Y-60423D01*
X15693Y-60611D02*
X15693Y-60217D01*
X15543Y-60217D01*
X15505Y-60236D01*
X15486Y-60254D01*
X15468Y-60292D01*
X15468Y-60348D01*
X15486Y-60386D01*
X15505Y-60404D01*
X15543Y-60423D01*
X15693Y-60423D01*
X15318Y-60498D02*
X15130Y-60498D01*
X15355Y-60611D02*
X15224Y-60217D01*
X15093Y-60611D01*
X14962Y-60611D02*
X14962Y-60217D01*
X14830Y-60498D01*
X14699Y-60217D01*
X14699Y-60611D01*
X14043Y-60611D02*
X14043Y-60404D01*
X14062Y-60367D01*
X14099Y-60348D01*
X14174Y-60348D01*
X14212Y-60367D01*
X14043Y-60592D02*
X14080Y-60611D01*
X14174Y-60611D01*
X14212Y-60592D01*
X14230Y-60554D01*
X14230Y-60517D01*
X14212Y-60479D01*
X14174Y-60461D01*
X14080Y-60461D01*
X14043Y-60442D01*
X13855Y-60348D02*
X13855Y-60611D01*
X13855Y-60386D02*
X13837Y-60367D01*
X13799Y-60348D01*
X13743Y-60348D01*
X13705Y-60367D01*
X13687Y-60404D01*
X13687Y-60611D01*
X13330Y-60611D02*
X13330Y-60217D01*
X13330Y-60592D02*
X13368Y-60611D01*
X13443Y-60611D01*
X13480Y-60592D01*
X13499Y-60573D01*
X13518Y-60536D01*
X13518Y-60423D01*
X13499Y-60386D01*
X13480Y-60367D01*
X13443Y-60348D01*
X13368Y-60348D01*
X13330Y-60367D01*
X12787Y-60611D02*
X12824Y-60592D01*
X12843Y-60554D01*
X12843Y-60217D01*
X12581Y-60611D02*
X12618Y-60592D01*
X12637Y-60573D01*
X12656Y-60536D01*
X12656Y-60423D01*
X12637Y-60386D01*
X12618Y-60367D01*
X12581Y-60348D01*
X12524Y-60348D01*
X12487Y-60367D01*
X12468Y-60386D01*
X12449Y-60423D01*
X12449Y-60536D01*
X12468Y-60573D01*
X12487Y-60592D01*
X12524Y-60611D01*
X12581Y-60611D01*
X12112Y-60348D02*
X12112Y-60667D01*
X12131Y-60704D01*
X12149Y-60723D01*
X12187Y-60742D01*
X12243Y-60742D01*
X12281Y-60723D01*
X12112Y-60592D02*
X12149Y-60611D01*
X12224Y-60611D01*
X12262Y-60592D01*
X12281Y-60573D01*
X12299Y-60536D01*
X12299Y-60423D01*
X12281Y-60386D01*
X12262Y-60367D01*
X12224Y-60348D01*
X12149Y-60348D01*
X12112Y-60367D01*
X11924Y-60611D02*
X11924Y-60348D01*
X11924Y-60217D02*
X11943Y-60236D01*
X11924Y-60254D01*
X11906Y-60236D01*
X11924Y-60217D01*
X11924Y-60254D01*
X11568Y-60592D02*
X11606Y-60611D01*
X11681Y-60611D01*
X11718Y-60592D01*
X11737Y-60573D01*
X11756Y-60536D01*
X11756Y-60423D01*
X11737Y-60386D01*
X11718Y-60367D01*
X11681Y-60348D01*
X11606Y-60348D01*
X11568Y-60367D01*
X19480Y-60998D02*
X19330Y-60998D01*
X19423Y-61260D02*
X19423Y-60923D01*
X19405Y-60885D01*
X19367Y-60867D01*
X19330Y-60867D01*
X19199Y-61260D02*
X19199Y-60998D01*
X19199Y-61073D02*
X19180Y-61035D01*
X19161Y-61017D01*
X19124Y-60998D01*
X19086Y-60998D01*
X18899Y-61260D02*
X18936Y-61242D01*
X18955Y-61223D01*
X18974Y-61185D01*
X18974Y-61073D01*
X18955Y-61035D01*
X18936Y-61017D01*
X18899Y-60998D01*
X18842Y-60998D01*
X18805Y-61017D01*
X18786Y-61035D01*
X18767Y-61073D01*
X18767Y-61185D01*
X18786Y-61223D01*
X18805Y-61242D01*
X18842Y-61260D01*
X18899Y-61260D01*
X18599Y-61260D02*
X18599Y-60998D01*
X18599Y-61035D02*
X18580Y-61017D01*
X18542Y-60998D01*
X18486Y-60998D01*
X18449Y-61017D01*
X18430Y-61054D01*
X18430Y-61260D01*
X18430Y-61054D02*
X18411Y-61017D01*
X18374Y-60998D01*
X18317Y-60998D01*
X18280Y-61017D01*
X18261Y-61054D01*
X18261Y-61260D01*
X17774Y-61110D02*
X17474Y-61110D01*
X17624Y-61260D02*
X17624Y-60960D01*
X17324Y-60867D02*
X17080Y-60867D01*
X17211Y-61017D01*
X17155Y-61017D01*
X17118Y-61035D01*
X17099Y-61054D01*
X17080Y-61092D01*
X17080Y-61185D01*
X17099Y-61223D01*
X17118Y-61242D01*
X17155Y-61260D01*
X17267Y-61260D01*
X17305Y-61242D01*
X17324Y-61223D01*
X16911Y-61223D02*
X16893Y-61242D01*
X16911Y-61260D01*
X16930Y-61242D01*
X16911Y-61223D01*
X16911Y-61260D01*
X16761Y-60867D02*
X16518Y-60867D01*
X16649Y-61017D01*
X16593Y-61017D01*
X16555Y-61035D01*
X16536Y-61054D01*
X16518Y-61092D01*
X16518Y-61185D01*
X16536Y-61223D01*
X16555Y-61242D01*
X16593Y-61260D01*
X16705Y-61260D01*
X16743Y-61242D01*
X16761Y-61223D01*
X16405Y-60867D02*
X16274Y-61260D01*
X16143Y-60867D01*
X15730Y-61242D02*
X15693Y-61260D01*
X15618Y-61260D01*
X15580Y-61242D01*
X15561Y-61204D01*
X15561Y-61185D01*
X15580Y-61148D01*
X15618Y-61129D01*
X15674Y-61129D01*
X15711Y-61110D01*
X15730Y-61073D01*
X15730Y-61054D01*
X15711Y-61017D01*
X15674Y-60998D01*
X15618Y-60998D01*
X15580Y-61017D01*
X15224Y-60998D02*
X15224Y-61260D01*
X15393Y-60998D02*
X15393Y-61204D01*
X15374Y-61242D01*
X15336Y-61260D01*
X15280Y-61260D01*
X15243Y-61242D01*
X15224Y-61223D01*
X15037Y-60998D02*
X15037Y-61392D01*
X15037Y-61017D02*
X14999Y-60998D01*
X14924Y-60998D01*
X14887Y-61017D01*
X14868Y-61035D01*
X14849Y-61073D01*
X14849Y-61185D01*
X14868Y-61223D01*
X14887Y-61242D01*
X14924Y-61260D01*
X14999Y-61260D01*
X15037Y-61242D01*
X14680Y-60998D02*
X14680Y-61392D01*
X14680Y-61017D02*
X14643Y-60998D01*
X14568Y-60998D01*
X14530Y-61017D01*
X14512Y-61035D01*
X14493Y-61073D01*
X14493Y-61185D01*
X14512Y-61223D01*
X14530Y-61242D01*
X14568Y-61260D01*
X14643Y-61260D01*
X14680Y-61242D01*
X14268Y-61260D02*
X14305Y-61242D01*
X14324Y-61204D01*
X14324Y-60867D01*
X14155Y-60998D02*
X14062Y-61260D01*
X13968Y-60998D02*
X14062Y-61260D01*
X14099Y-61354D01*
X14118Y-61373D01*
X14155Y-61392D01*
X13818Y-61223D02*
X13799Y-61242D01*
X13818Y-61260D01*
X13837Y-61242D01*
X13818Y-61223D01*
X13818Y-61260D01*
X13818Y-61017D02*
X13799Y-61035D01*
X13818Y-61054D01*
X13837Y-61035D01*
X13818Y-61017D01*
X13818Y-61054D01*
X19217Y-61910D02*
X19442Y-61910D01*
X19330Y-61910D02*
X19330Y-61516D01*
X19367Y-61572D01*
X19405Y-61610D01*
X19442Y-61629D01*
X18880Y-61910D02*
X18880Y-61704D01*
X18899Y-61666D01*
X18936Y-61647D01*
X19011Y-61647D01*
X19049Y-61666D01*
X18880Y-61891D02*
X18917Y-61910D01*
X19011Y-61910D01*
X19049Y-61891D01*
X19067Y-61854D01*
X19067Y-61816D01*
X19049Y-61779D01*
X19011Y-61760D01*
X18917Y-61760D01*
X18880Y-61741D01*
X18730Y-62060D02*
X18711Y-62041D01*
X18674Y-61985D01*
X18655Y-61947D01*
X18636Y-61891D01*
X18617Y-61797D01*
X18617Y-61722D01*
X18636Y-61629D01*
X18655Y-61572D01*
X18674Y-61535D01*
X18711Y-61479D01*
X18730Y-61460D01*
X17942Y-61910D02*
X18130Y-61910D01*
X18130Y-61516D01*
X17811Y-61910D02*
X17811Y-61647D01*
X17811Y-61516D02*
X17830Y-61535D01*
X17811Y-61554D01*
X17792Y-61535D01*
X17811Y-61516D01*
X17811Y-61554D01*
X17624Y-61647D02*
X17624Y-61910D01*
X17624Y-61685D02*
X17605Y-61666D01*
X17567Y-61647D01*
X17511Y-61647D01*
X17474Y-61666D01*
X17455Y-61704D01*
X17455Y-61910D01*
X17267Y-61910D02*
X17267Y-61516D01*
X17230Y-61760D02*
X17118Y-61910D01*
X17118Y-61647D02*
X17267Y-61797D01*
X16668Y-61891D02*
X16611Y-61910D01*
X16518Y-61910D01*
X16480Y-61891D01*
X16461Y-61872D01*
X16443Y-61835D01*
X16443Y-61797D01*
X16461Y-61760D01*
X16480Y-61741D01*
X16518Y-61722D01*
X16593Y-61704D01*
X16630Y-61685D01*
X16649Y-61666D01*
X16668Y-61629D01*
X16668Y-61591D01*
X16649Y-61554D01*
X16630Y-61535D01*
X16593Y-61516D01*
X16499Y-61516D01*
X16443Y-61535D01*
X16311Y-61647D02*
X16236Y-61910D01*
X16161Y-61722D01*
X16086Y-61910D01*
X16011Y-61647D01*
X15693Y-61910D02*
X15693Y-61704D01*
X15711Y-61666D01*
X15749Y-61647D01*
X15824Y-61647D01*
X15861Y-61666D01*
X15693Y-61891D02*
X15730Y-61910D01*
X15824Y-61910D01*
X15861Y-61891D01*
X15880Y-61854D01*
X15880Y-61816D01*
X15861Y-61779D01*
X15824Y-61760D01*
X15730Y-61760D01*
X15693Y-61741D01*
X15449Y-61910D02*
X15486Y-61891D01*
X15505Y-61854D01*
X15505Y-61516D01*
X15243Y-61910D02*
X15280Y-61891D01*
X15299Y-61854D01*
X15299Y-61516D01*
X15037Y-61910D02*
X15074Y-61891D01*
X15093Y-61872D01*
X15112Y-61835D01*
X15112Y-61722D01*
X15093Y-61685D01*
X15074Y-61666D01*
X15037Y-61647D01*
X14980Y-61647D01*
X14943Y-61666D01*
X14924Y-61685D01*
X14905Y-61722D01*
X14905Y-61835D01*
X14924Y-61872D01*
X14943Y-61891D01*
X14980Y-61910D01*
X15037Y-61910D01*
X14774Y-61647D02*
X14699Y-61910D01*
X14624Y-61722D01*
X14549Y-61910D01*
X14474Y-61647D01*
X14024Y-61760D02*
X13724Y-61760D01*
X13874Y-61910D02*
X13874Y-61610D01*
X13574Y-61516D02*
X13330Y-61516D01*
X13462Y-61666D01*
X13405Y-61666D01*
X13368Y-61685D01*
X13349Y-61704D01*
X13330Y-61741D01*
X13330Y-61835D01*
X13349Y-61872D01*
X13368Y-61891D01*
X13405Y-61910D01*
X13518Y-61910D01*
X13555Y-61891D01*
X13574Y-61872D01*
X13218Y-61516D02*
X13087Y-61910D01*
X12956Y-61516D01*
X12862Y-61516D02*
X12618Y-61516D01*
X12749Y-61666D01*
X12693Y-61666D01*
X12656Y-61685D01*
X12637Y-61704D01*
X12618Y-61741D01*
X12618Y-61835D01*
X12637Y-61872D01*
X12656Y-61891D01*
X12693Y-61910D01*
X12806Y-61910D01*
X12843Y-61891D01*
X12862Y-61872D01*
X12187Y-61647D02*
X12093Y-61910D01*
X11999Y-61647D01*
X11849Y-61910D02*
X11849Y-61647D01*
X11849Y-61516D02*
X11868Y-61535D01*
X11849Y-61554D01*
X11831Y-61535D01*
X11849Y-61516D01*
X11849Y-61554D01*
X11493Y-61910D02*
X11493Y-61704D01*
X11512Y-61666D01*
X11549Y-61647D01*
X11624Y-61647D01*
X11662Y-61666D01*
X11493Y-61891D02*
X11531Y-61910D01*
X11624Y-61910D01*
X11662Y-61891D01*
X11681Y-61854D01*
X11681Y-61816D01*
X11662Y-61779D01*
X11624Y-61760D01*
X11531Y-61760D01*
X11493Y-61741D01*
X11006Y-61910D02*
X11006Y-61516D01*
X10856Y-61516D01*
X10818Y-61535D01*
X10800Y-61554D01*
X10781Y-61591D01*
X10781Y-61647D01*
X10800Y-61685D01*
X10818Y-61704D01*
X10856Y-61722D01*
X11006Y-61722D01*
X10650Y-61516D02*
X10406Y-61516D01*
X10537Y-61666D01*
X10481Y-61666D01*
X10443Y-61685D01*
X10425Y-61704D01*
X10406Y-61741D01*
X10406Y-61835D01*
X10425Y-61872D01*
X10443Y-61891D01*
X10481Y-61910D01*
X10593Y-61910D01*
X10631Y-61891D01*
X10650Y-61872D01*
X19367Y-62559D02*
X19405Y-62541D01*
X19423Y-62522D01*
X19442Y-62485D01*
X19442Y-62372D01*
X19423Y-62335D01*
X19405Y-62316D01*
X19367Y-62297D01*
X19311Y-62297D01*
X19273Y-62316D01*
X19255Y-62335D01*
X19236Y-62372D01*
X19236Y-62485D01*
X19255Y-62522D01*
X19273Y-62541D01*
X19311Y-62559D01*
X19367Y-62559D01*
X19067Y-62559D02*
X19067Y-62297D01*
X19067Y-62372D02*
X19049Y-62335D01*
X19030Y-62316D01*
X18992Y-62297D01*
X18955Y-62297D01*
X19217Y-63209D02*
X19442Y-63209D01*
X19330Y-63209D02*
X19330Y-62815D01*
X19367Y-62872D01*
X19405Y-62909D01*
X19442Y-62928D01*
X19049Y-63209D02*
X19049Y-62815D01*
X19049Y-62965D02*
X19011Y-62947D01*
X18936Y-62947D01*
X18899Y-62965D01*
X18880Y-62984D01*
X18861Y-63022D01*
X18861Y-63134D01*
X18880Y-63172D01*
X18899Y-63190D01*
X18936Y-63209D01*
X19011Y-63209D01*
X19049Y-63190D01*
X18730Y-63359D02*
X18711Y-63340D01*
X18674Y-63284D01*
X18655Y-63247D01*
X18636Y-63190D01*
X18617Y-63097D01*
X18617Y-63022D01*
X18636Y-62928D01*
X18655Y-62872D01*
X18674Y-62834D01*
X18711Y-62778D01*
X18730Y-62759D01*
X18149Y-63097D02*
X17961Y-63097D01*
X18186Y-63209D02*
X18055Y-62815D01*
X17924Y-63209D01*
X17849Y-62947D02*
X17699Y-62947D01*
X17792Y-62815D02*
X17792Y-63153D01*
X17774Y-63190D01*
X17736Y-63209D01*
X17699Y-63209D01*
X17624Y-62947D02*
X17474Y-62947D01*
X17567Y-62815D02*
X17567Y-63153D01*
X17549Y-63190D01*
X17511Y-63209D01*
X17474Y-63209D01*
X17174Y-63209D02*
X17174Y-63003D01*
X17193Y-62965D01*
X17230Y-62947D01*
X17305Y-62947D01*
X17342Y-62965D01*
X17174Y-63190D02*
X17211Y-63209D01*
X17305Y-63209D01*
X17342Y-63190D01*
X17361Y-63153D01*
X17361Y-63115D01*
X17342Y-63078D01*
X17305Y-63059D01*
X17211Y-63059D01*
X17174Y-63040D01*
X16818Y-63190D02*
X16855Y-63209D01*
X16930Y-63209D01*
X16968Y-63190D01*
X16986Y-63172D01*
X17005Y-63134D01*
X17005Y-63022D01*
X16986Y-62984D01*
X16968Y-62965D01*
X16930Y-62947D01*
X16855Y-62947D01*
X16818Y-62965D01*
X16649Y-63209D02*
X16649Y-62815D01*
X16480Y-63209D02*
X16480Y-63003D01*
X16499Y-62965D01*
X16536Y-62947D01*
X16593Y-62947D01*
X16630Y-62965D01*
X16649Y-62984D01*
X15993Y-63059D02*
X15693Y-63059D01*
X15843Y-63209D02*
X15843Y-62909D01*
X15543Y-62815D02*
X15299Y-62815D01*
X15430Y-62965D01*
X15374Y-62965D01*
X15336Y-62984D01*
X15318Y-63003D01*
X15299Y-63040D01*
X15299Y-63134D01*
X15318Y-63172D01*
X15336Y-63190D01*
X15374Y-63209D01*
X15486Y-63209D01*
X15524Y-63190D01*
X15543Y-63172D01*
X15130Y-63172D02*
X15112Y-63190D01*
X15130Y-63209D01*
X15149Y-63190D01*
X15130Y-63172D01*
X15130Y-63209D01*
X14980Y-62815D02*
X14737Y-62815D01*
X14868Y-62965D01*
X14812Y-62965D01*
X14774Y-62984D01*
X14755Y-63003D01*
X14737Y-63040D01*
X14737Y-63134D01*
X14755Y-63172D01*
X14774Y-63190D01*
X14812Y-63209D01*
X14924Y-63209D01*
X14962Y-63190D01*
X14980Y-63172D01*
X14624Y-62815D02*
X14493Y-63209D01*
X14362Y-62815D01*
X13968Y-62947D02*
X13874Y-63209D01*
X13780Y-62947D01*
X13630Y-63209D02*
X13630Y-62947D01*
X13630Y-62815D02*
X13649Y-62834D01*
X13630Y-62853D01*
X13612Y-62834D01*
X13630Y-62815D01*
X13630Y-62853D01*
X13274Y-63209D02*
X13274Y-63003D01*
X13293Y-62965D01*
X13330Y-62947D01*
X13405Y-62947D01*
X13443Y-62965D01*
X13274Y-63190D02*
X13312Y-63209D01*
X13405Y-63209D01*
X13443Y-63190D01*
X13462Y-63153D01*
X13462Y-63115D01*
X13443Y-63078D01*
X13405Y-63059D01*
X13312Y-63059D01*
X13274Y-63040D01*
X12787Y-63209D02*
X12787Y-62815D01*
X12637Y-62815D01*
X12599Y-62834D01*
X12581Y-62853D01*
X12562Y-62890D01*
X12562Y-62947D01*
X12581Y-62984D01*
X12599Y-63003D01*
X12637Y-63022D01*
X12787Y-63022D01*
X12224Y-62947D02*
X12224Y-63209D01*
X12318Y-62797D02*
X12412Y-63078D01*
X12168Y-63078D01*
X11737Y-62797D02*
X12074Y-63303D01*
X11606Y-63209D02*
X11606Y-62815D01*
X11456Y-62815D01*
X11418Y-62834D01*
X11399Y-62853D01*
X11381Y-62890D01*
X11381Y-62947D01*
X11399Y-62984D01*
X11418Y-63003D01*
X11456Y-63022D01*
X11606Y-63022D01*
X11006Y-63209D02*
X11231Y-63209D01*
X11118Y-63209D02*
X11118Y-62815D01*
X11156Y-62872D01*
X11193Y-62909D01*
X11231Y-62928D01*
X10856Y-62853D02*
X10837Y-62834D01*
X10800Y-62815D01*
X10706Y-62815D01*
X10668Y-62834D01*
X10650Y-62853D01*
X10631Y-62890D01*
X10631Y-62928D01*
X10650Y-62984D01*
X10875Y-63209D01*
X10631Y-63209D01*
X21281Y-67678D02*
X21056Y-67678D01*
X21168Y-68071D02*
X21168Y-67678D01*
X20868Y-68071D02*
X20906Y-68053D01*
X20925Y-68034D01*
X20943Y-67996D01*
X20943Y-67884D01*
X20925Y-67846D01*
X20906Y-67828D01*
X20868Y-67809D01*
X20812Y-67809D01*
X20775Y-67828D01*
X20756Y-67846D01*
X20737Y-67884D01*
X20737Y-67996D01*
X20756Y-68034D01*
X20775Y-68053D01*
X20812Y-68071D01*
X20868Y-68071D01*
X20269Y-68071D02*
X20269Y-67809D01*
X20269Y-67884D02*
X20250Y-67846D01*
X20231Y-67828D01*
X20194Y-67809D01*
X20156Y-67809D01*
X19856Y-67809D02*
X19856Y-68071D01*
X20025Y-67809D02*
X20025Y-68015D01*
X20006Y-68053D01*
X19969Y-68071D01*
X19912Y-68071D01*
X19875Y-68053D01*
X19856Y-68034D01*
X19669Y-67809D02*
X19669Y-68071D01*
X19669Y-67846D02*
X19650Y-67828D01*
X19612Y-67809D01*
X19556Y-67809D01*
X19519Y-67828D01*
X19500Y-67865D01*
X19500Y-68071D01*
X19031Y-67959D02*
X18844Y-67959D01*
X19069Y-68071D02*
X18937Y-67678D01*
X18806Y-68071D01*
X18675Y-68071D02*
X18675Y-67678D01*
X18581Y-67678D01*
X18525Y-67696D01*
X18488Y-67734D01*
X18469Y-67771D01*
X18450Y-67846D01*
X18450Y-67903D01*
X18469Y-67978D01*
X18488Y-68015D01*
X18525Y-68053D01*
X18581Y-68071D01*
X18675Y-68071D01*
X18056Y-68034D02*
X18075Y-68053D01*
X18131Y-68071D01*
X18169Y-68071D01*
X18225Y-68053D01*
X18263Y-68015D01*
X18281Y-67978D01*
X18300Y-67903D01*
X18300Y-67846D01*
X18281Y-67771D01*
X18263Y-67734D01*
X18225Y-67696D01*
X18169Y-67678D01*
X18131Y-67678D01*
X18075Y-67696D01*
X18056Y-67715D01*
X17419Y-68071D02*
X17419Y-67865D01*
X17438Y-67828D01*
X17475Y-67809D01*
X17550Y-67809D01*
X17588Y-67828D01*
X17419Y-68053D02*
X17456Y-68071D01*
X17550Y-68071D01*
X17588Y-68053D01*
X17606Y-68015D01*
X17606Y-67978D01*
X17588Y-67940D01*
X17550Y-67921D01*
X17456Y-67921D01*
X17419Y-67903D01*
X17231Y-67809D02*
X17231Y-68071D01*
X17231Y-67846D02*
X17213Y-67828D01*
X17175Y-67809D01*
X17119Y-67809D01*
X17081Y-67828D01*
X17063Y-67865D01*
X17063Y-68071D01*
X16706Y-68071D02*
X16706Y-67678D01*
X16706Y-68053D02*
X16744Y-68071D01*
X16819Y-68071D01*
X16856Y-68053D01*
X16875Y-68034D01*
X16894Y-67996D01*
X16894Y-67884D01*
X16875Y-67846D01*
X16856Y-67828D01*
X16819Y-67809D01*
X16744Y-67809D01*
X16706Y-67828D01*
X16238Y-67959D02*
X16050Y-67959D01*
X16275Y-68071D02*
X16144Y-67678D01*
X16013Y-68071D01*
X15882Y-68071D02*
X15882Y-67809D01*
X15882Y-67846D02*
X15863Y-67828D01*
X15825Y-67809D01*
X15769Y-67809D01*
X15732Y-67828D01*
X15713Y-67865D01*
X15713Y-68071D01*
X15713Y-67865D02*
X15694Y-67828D01*
X15657Y-67809D01*
X15600Y-67809D01*
X15563Y-67828D01*
X15544Y-67865D01*
X15544Y-68071D01*
X15357Y-67809D02*
X15357Y-68203D01*
X15357Y-67828D02*
X15319Y-67809D01*
X15244Y-67809D01*
X15207Y-67828D01*
X15188Y-67846D01*
X15169Y-67884D01*
X15169Y-67996D01*
X15188Y-68034D01*
X15207Y-68053D01*
X15244Y-68071D01*
X15319Y-68071D01*
X15357Y-68053D01*
X14757Y-67809D02*
X14607Y-67809D01*
X14700Y-68071D02*
X14700Y-67734D01*
X14682Y-67696D01*
X14644Y-67678D01*
X14607Y-67678D01*
X14476Y-68071D02*
X14476Y-67809D01*
X14476Y-67884D02*
X14457Y-67846D01*
X14438Y-67828D01*
X14401Y-67809D01*
X14363Y-67809D01*
X14176Y-68071D02*
X14213Y-68053D01*
X14232Y-68034D01*
X14251Y-67996D01*
X14251Y-67884D01*
X14232Y-67846D01*
X14213Y-67828D01*
X14176Y-67809D01*
X14119Y-67809D01*
X14082Y-67828D01*
X14063Y-67846D01*
X14044Y-67884D01*
X14044Y-67996D01*
X14063Y-68034D01*
X14082Y-68053D01*
X14119Y-68071D01*
X14176Y-68071D01*
X13876Y-68071D02*
X13876Y-67809D01*
X13876Y-67846D02*
X13857Y-67828D01*
X13819Y-67809D01*
X13763Y-67809D01*
X13726Y-67828D01*
X13707Y-67865D01*
X13707Y-68071D01*
X13707Y-67865D02*
X13688Y-67828D01*
X13651Y-67809D01*
X13594Y-67809D01*
X13557Y-67828D01*
X13538Y-67865D01*
X13538Y-68071D01*
X13051Y-67921D02*
X12751Y-67921D01*
X12901Y-68071D02*
X12901Y-67771D01*
X12376Y-67678D02*
X12563Y-67678D01*
X12582Y-67865D01*
X12563Y-67846D01*
X12526Y-67828D01*
X12432Y-67828D01*
X12395Y-67846D01*
X12376Y-67865D01*
X12357Y-67903D01*
X12357Y-67996D01*
X12376Y-68034D01*
X12395Y-68053D01*
X12432Y-68071D01*
X12526Y-68071D01*
X12563Y-68053D01*
X12582Y-68034D01*
X12245Y-67678D02*
X12113Y-68071D01*
X11982Y-67678D01*
X11851Y-68034D02*
X11832Y-68053D01*
X11851Y-68071D01*
X11870Y-68053D01*
X11851Y-68034D01*
X11851Y-68071D01*
X11851Y-67828D02*
X11832Y-67846D01*
X11851Y-67865D01*
X11870Y-67846D01*
X11851Y-67828D01*
X11851Y-67865D01*
X21112Y-68871D02*
X21131Y-68852D01*
X21168Y-68796D01*
X21187Y-68758D01*
X21206Y-68702D01*
X21225Y-68608D01*
X21225Y-68533D01*
X21206Y-68440D01*
X21187Y-68383D01*
X21168Y-68346D01*
X21131Y-68290D01*
X21112Y-68271D01*
X20962Y-68721D02*
X20962Y-68327D01*
X20737Y-68721D01*
X20737Y-68327D01*
X20494Y-68721D02*
X20531Y-68702D01*
X20550Y-68683D01*
X20568Y-68646D01*
X20568Y-68533D01*
X20550Y-68496D01*
X20531Y-68477D01*
X20494Y-68458D01*
X20437Y-68458D01*
X20400Y-68477D01*
X20381Y-68496D01*
X20362Y-68533D01*
X20362Y-68646D01*
X20381Y-68683D01*
X20400Y-68702D01*
X20437Y-68721D01*
X20494Y-68721D01*
X19894Y-68571D02*
X19594Y-68571D01*
X19744Y-68721D02*
X19744Y-68421D01*
X19444Y-68327D02*
X19200Y-68327D01*
X19331Y-68477D01*
X19275Y-68477D01*
X19237Y-68496D01*
X19219Y-68515D01*
X19200Y-68552D01*
X19200Y-68646D01*
X19219Y-68683D01*
X19237Y-68702D01*
X19275Y-68721D01*
X19387Y-68721D01*
X19425Y-68702D01*
X19444Y-68683D01*
X19087Y-68327D02*
X18956Y-68721D01*
X18825Y-68327D01*
X18731Y-68327D02*
X18488Y-68327D01*
X18619Y-68477D01*
X18562Y-68477D01*
X18525Y-68496D01*
X18506Y-68515D01*
X18488Y-68552D01*
X18488Y-68646D01*
X18506Y-68683D01*
X18525Y-68702D01*
X18562Y-68721D01*
X18675Y-68721D01*
X18712Y-68702D01*
X18731Y-68683D01*
X18019Y-68721D02*
X18019Y-68458D01*
X18019Y-68533D02*
X18000Y-68496D01*
X17981Y-68477D01*
X17944Y-68458D01*
X17906Y-68458D01*
X17625Y-68702D02*
X17663Y-68721D01*
X17738Y-68721D01*
X17775Y-68702D01*
X17794Y-68665D01*
X17794Y-68515D01*
X17775Y-68477D01*
X17738Y-68458D01*
X17663Y-68458D01*
X17625Y-68477D01*
X17606Y-68515D01*
X17606Y-68552D01*
X17794Y-68590D01*
X17269Y-68458D02*
X17269Y-68852D01*
X17269Y-68702D02*
X17306Y-68721D01*
X17381Y-68721D01*
X17419Y-68702D01*
X17438Y-68683D01*
X17456Y-68646D01*
X17456Y-68533D01*
X17438Y-68496D01*
X17419Y-68477D01*
X17381Y-68458D01*
X17306Y-68458D01*
X17269Y-68477D01*
X16913Y-68458D02*
X16913Y-68721D01*
X17081Y-68458D02*
X17081Y-68665D01*
X17063Y-68702D01*
X17025Y-68721D01*
X16969Y-68721D01*
X16931Y-68702D01*
X16913Y-68683D01*
X16725Y-68721D02*
X16725Y-68458D01*
X16725Y-68327D02*
X16744Y-68346D01*
X16725Y-68365D01*
X16706Y-68346D01*
X16725Y-68327D01*
X16725Y-68365D01*
X16538Y-68721D02*
X16538Y-68458D01*
X16538Y-68533D02*
X16519Y-68496D01*
X16500Y-68477D01*
X16463Y-68458D01*
X16425Y-68458D01*
X16144Y-68702D02*
X16182Y-68721D01*
X16257Y-68721D01*
X16294Y-68702D01*
X16313Y-68665D01*
X16313Y-68515D01*
X16294Y-68477D01*
X16257Y-68458D01*
X16182Y-68458D01*
X16144Y-68477D01*
X16125Y-68515D01*
X16125Y-68552D01*
X16313Y-68590D01*
X15788Y-68721D02*
X15788Y-68327D01*
X15788Y-68702D02*
X15825Y-68721D01*
X15900Y-68721D01*
X15938Y-68702D01*
X15957Y-68683D01*
X15975Y-68646D01*
X15975Y-68533D01*
X15957Y-68496D01*
X15938Y-68477D01*
X15900Y-68458D01*
X15825Y-68458D01*
X15788Y-68477D01*
X15638Y-68871D02*
X15619Y-68852D01*
X15582Y-68796D01*
X15563Y-68758D01*
X15544Y-68702D01*
X15525Y-68608D01*
X15525Y-68533D01*
X15544Y-68440D01*
X15563Y-68383D01*
X15582Y-68346D01*
X15619Y-68290D01*
X15638Y-68271D01*
X21018Y-69371D02*
X21243Y-69371D01*
X21131Y-69371D02*
X21131Y-68977D01*
X21168Y-69033D01*
X21206Y-69071D01*
X21243Y-69089D01*
X20887Y-69520D02*
X20868Y-69502D01*
X20831Y-69446D01*
X20812Y-69408D01*
X20793Y-69352D01*
X20775Y-69258D01*
X20775Y-69183D01*
X20793Y-69089D01*
X20812Y-69033D01*
X20831Y-68996D01*
X20868Y-68939D01*
X20887Y-68921D01*
X20062Y-69333D02*
X20081Y-69352D01*
X20137Y-69371D01*
X20175Y-69371D01*
X20231Y-69352D01*
X20269Y-69314D01*
X20287Y-69277D01*
X20306Y-69202D01*
X20306Y-69146D01*
X20287Y-69071D01*
X20269Y-69033D01*
X20231Y-68996D01*
X20175Y-68977D01*
X20137Y-68977D01*
X20081Y-68996D01*
X20062Y-69014D01*
X19837Y-69371D02*
X19875Y-69352D01*
X19894Y-69333D01*
X19912Y-69296D01*
X19912Y-69183D01*
X19894Y-69146D01*
X19875Y-69127D01*
X19837Y-69108D01*
X19781Y-69108D01*
X19744Y-69127D01*
X19725Y-69146D01*
X19706Y-69183D01*
X19706Y-69296D01*
X19725Y-69333D01*
X19744Y-69352D01*
X19781Y-69371D01*
X19837Y-69371D01*
X19537Y-69108D02*
X19537Y-69371D01*
X19537Y-69146D02*
X19519Y-69127D01*
X19481Y-69108D01*
X19425Y-69108D01*
X19387Y-69127D01*
X19369Y-69164D01*
X19369Y-69371D01*
X19181Y-69108D02*
X19181Y-69371D01*
X19181Y-69146D02*
X19162Y-69127D01*
X19125Y-69108D01*
X19069Y-69108D01*
X19031Y-69127D01*
X19012Y-69164D01*
X19012Y-69371D01*
X18675Y-69352D02*
X18712Y-69371D01*
X18787Y-69371D01*
X18825Y-69352D01*
X18844Y-69314D01*
X18844Y-69164D01*
X18825Y-69127D01*
X18787Y-69108D01*
X18712Y-69108D01*
X18675Y-69127D01*
X18656Y-69164D01*
X18656Y-69202D01*
X18844Y-69239D01*
X18319Y-69352D02*
X18356Y-69371D01*
X18431Y-69371D01*
X18469Y-69352D01*
X18488Y-69333D01*
X18506Y-69296D01*
X18506Y-69183D01*
X18488Y-69146D01*
X18469Y-69127D01*
X18431Y-69108D01*
X18356Y-69108D01*
X18319Y-69127D01*
X18206Y-69108D02*
X18056Y-69108D01*
X18150Y-68977D02*
X18150Y-69314D01*
X18131Y-69352D01*
X18094Y-69371D01*
X18056Y-69371D01*
X17681Y-68977D02*
X17550Y-69371D01*
X17419Y-68977D01*
X17306Y-69258D02*
X17119Y-69258D01*
X17344Y-69371D02*
X17213Y-68977D01*
X17081Y-69371D01*
X16969Y-69258D02*
X16781Y-69258D01*
X17006Y-69371D02*
X16875Y-68977D01*
X16744Y-69371D01*
X16313Y-69371D02*
X16313Y-68977D01*
X16144Y-69371D02*
X16144Y-69164D01*
X16163Y-69127D01*
X16200Y-69108D01*
X16257Y-69108D01*
X16294Y-69127D01*
X16313Y-69146D01*
X15807Y-69352D02*
X15844Y-69371D01*
X15919Y-69371D01*
X15957Y-69352D01*
X15975Y-69314D01*
X15975Y-69164D01*
X15957Y-69127D01*
X15919Y-69108D01*
X15844Y-69108D01*
X15807Y-69127D01*
X15788Y-69164D01*
X15788Y-69202D01*
X15975Y-69239D01*
X15450Y-69371D02*
X15450Y-69164D01*
X15469Y-69127D01*
X15507Y-69108D01*
X15582Y-69108D01*
X15619Y-69127D01*
X15450Y-69352D02*
X15488Y-69371D01*
X15582Y-69371D01*
X15619Y-69352D01*
X15638Y-69314D01*
X15638Y-69277D01*
X15619Y-69239D01*
X15582Y-69221D01*
X15488Y-69221D01*
X15450Y-69202D01*
X15094Y-69371D02*
X15094Y-68977D01*
X15094Y-69352D02*
X15132Y-69371D01*
X15207Y-69371D01*
X15244Y-69352D01*
X15263Y-69333D01*
X15282Y-69296D01*
X15282Y-69183D01*
X15263Y-69146D01*
X15244Y-69127D01*
X15207Y-69108D01*
X15132Y-69108D01*
X15094Y-69127D01*
X14757Y-69352D02*
X14794Y-69371D01*
X14869Y-69371D01*
X14907Y-69352D01*
X14925Y-69314D01*
X14925Y-69164D01*
X14907Y-69127D01*
X14869Y-69108D01*
X14794Y-69108D01*
X14757Y-69127D01*
X14738Y-69164D01*
X14738Y-69202D01*
X14925Y-69239D01*
X14569Y-69371D02*
X14569Y-69108D01*
X14569Y-69183D02*
X14550Y-69146D01*
X14532Y-69127D01*
X14494Y-69108D01*
X14457Y-69108D01*
X14082Y-69108D02*
X13932Y-69108D01*
X14026Y-68977D02*
X14026Y-69314D01*
X14007Y-69352D01*
X13969Y-69371D01*
X13932Y-69371D01*
X13744Y-69371D02*
X13782Y-69352D01*
X13801Y-69333D01*
X13819Y-69296D01*
X13819Y-69183D01*
X13801Y-69146D01*
X13782Y-69127D01*
X13744Y-69108D01*
X13688Y-69108D01*
X13651Y-69127D01*
X13632Y-69146D01*
X13613Y-69183D01*
X13613Y-69296D01*
X13632Y-69333D01*
X13651Y-69352D01*
X13688Y-69371D01*
X13744Y-69371D01*
X13144Y-69221D02*
X12844Y-69221D01*
X12994Y-69371D02*
X12994Y-69071D01*
X12470Y-68977D02*
X12657Y-68977D01*
X12676Y-69164D01*
X12657Y-69146D01*
X12619Y-69127D01*
X12526Y-69127D01*
X12488Y-69146D01*
X12470Y-69164D01*
X12451Y-69202D01*
X12451Y-69296D01*
X12470Y-69333D01*
X12488Y-69352D01*
X12526Y-69371D01*
X12619Y-69371D01*
X12657Y-69352D01*
X12676Y-69333D01*
X12338Y-68977D02*
X12207Y-69371D01*
X12076Y-68977D01*
X11945Y-69333D02*
X11926Y-69352D01*
X11945Y-69371D01*
X11963Y-69352D01*
X11945Y-69333D01*
X11945Y-69371D01*
X21243Y-69664D02*
X21225Y-69645D01*
X21187Y-69626D01*
X21093Y-69626D01*
X21056Y-69645D01*
X21037Y-69664D01*
X21018Y-69701D01*
X21018Y-69739D01*
X21037Y-69795D01*
X21262Y-70020D01*
X21018Y-70020D01*
X20887Y-70170D02*
X20868Y-70151D01*
X20831Y-70095D01*
X20812Y-70058D01*
X20793Y-70001D01*
X20775Y-69908D01*
X20775Y-69833D01*
X20793Y-69739D01*
X20812Y-69683D01*
X20831Y-69645D01*
X20868Y-69589D01*
X20887Y-69570D01*
X20287Y-69626D02*
X20287Y-69945D01*
X20269Y-69983D01*
X20250Y-70001D01*
X20212Y-70020D01*
X20137Y-70020D01*
X20100Y-70001D01*
X20081Y-69983D01*
X20062Y-69945D01*
X20062Y-69626D01*
X19875Y-69758D02*
X19875Y-70020D01*
X19875Y-69795D02*
X19856Y-69776D01*
X19819Y-69758D01*
X19762Y-69758D01*
X19725Y-69776D01*
X19706Y-69814D01*
X19706Y-70020D01*
X19519Y-69870D02*
X19219Y-69870D01*
X18975Y-70020D02*
X19012Y-70001D01*
X19031Y-69964D01*
X19031Y-69626D01*
X18825Y-70020D02*
X18825Y-69758D01*
X18825Y-69626D02*
X18844Y-69645D01*
X18825Y-69664D01*
X18806Y-69645D01*
X18825Y-69626D01*
X18825Y-69664D01*
X18637Y-69758D02*
X18637Y-70020D01*
X18637Y-69795D02*
X18619Y-69776D01*
X18581Y-69758D01*
X18525Y-69758D01*
X18488Y-69776D01*
X18469Y-69814D01*
X18469Y-70020D01*
X18281Y-70020D02*
X18281Y-69626D01*
X18244Y-69870D02*
X18131Y-70020D01*
X18131Y-69758D02*
X18281Y-69908D01*
X17663Y-70020D02*
X17663Y-69626D01*
X17513Y-69626D01*
X17475Y-69645D01*
X17456Y-69664D01*
X17438Y-69701D01*
X17438Y-69758D01*
X17456Y-69795D01*
X17475Y-69814D01*
X17513Y-69833D01*
X17663Y-69833D01*
X17063Y-70020D02*
X17288Y-70020D01*
X17175Y-70020D02*
X17175Y-69626D01*
X17213Y-69683D01*
X17250Y-69720D01*
X17288Y-69739D01*
X16725Y-69626D02*
X16800Y-69626D01*
X16838Y-69645D01*
X16856Y-69664D01*
X16894Y-69720D01*
X16913Y-69795D01*
X16913Y-69945D01*
X16894Y-69983D01*
X16875Y-70001D01*
X16838Y-70020D01*
X16763Y-70020D01*
X16725Y-70001D01*
X16706Y-69983D01*
X16688Y-69945D01*
X16688Y-69851D01*
X16706Y-69814D01*
X16725Y-69795D01*
X16763Y-69776D01*
X16838Y-69776D01*
X16875Y-69795D01*
X16894Y-69814D01*
X16913Y-69851D01*
X15900Y-70020D02*
X15919Y-70020D01*
X15957Y-70001D01*
X16013Y-69945D01*
X16107Y-69833D01*
X16144Y-69776D01*
X16163Y-69720D01*
X16163Y-69683D01*
X16144Y-69645D01*
X16107Y-69626D01*
X16088Y-69626D01*
X16050Y-69645D01*
X16032Y-69683D01*
X16032Y-69701D01*
X16050Y-69739D01*
X16069Y-69758D01*
X16182Y-69833D01*
X16200Y-69851D01*
X16219Y-69889D01*
X16219Y-69945D01*
X16200Y-69983D01*
X16182Y-70001D01*
X16144Y-70020D01*
X16088Y-70020D01*
X16050Y-70001D01*
X16032Y-69983D01*
X15975Y-69908D01*
X15957Y-69851D01*
X15957Y-69814D01*
X15432Y-70020D02*
X15432Y-69626D01*
X15282Y-69626D01*
X15244Y-69645D01*
X15225Y-69664D01*
X15207Y-69701D01*
X15207Y-69758D01*
X15225Y-69795D01*
X15244Y-69814D01*
X15282Y-69833D01*
X15432Y-69833D01*
X14832Y-70020D02*
X15057Y-70020D01*
X14944Y-70020D02*
X14944Y-69626D01*
X14982Y-69683D01*
X15019Y-69720D01*
X15057Y-69739D01*
X14700Y-69626D02*
X14438Y-69626D01*
X14607Y-70020D01*
X21281Y-71575D02*
X21056Y-71575D01*
X21168Y-71969D02*
X21168Y-71575D01*
X20868Y-71969D02*
X20906Y-71950D01*
X20925Y-71931D01*
X20943Y-71894D01*
X20943Y-71781D01*
X20925Y-71744D01*
X20906Y-71725D01*
X20868Y-71706D01*
X20812Y-71706D01*
X20775Y-71725D01*
X20756Y-71744D01*
X20737Y-71781D01*
X20737Y-71894D01*
X20756Y-71931D01*
X20775Y-71950D01*
X20812Y-71969D01*
X20868Y-71969D01*
X20269Y-71969D02*
X20269Y-71706D01*
X20269Y-71781D02*
X20250Y-71744D01*
X20231Y-71725D01*
X20194Y-71706D01*
X20156Y-71706D01*
X19856Y-71706D02*
X19856Y-71969D01*
X20025Y-71706D02*
X20025Y-71913D01*
X20006Y-71950D01*
X19969Y-71969D01*
X19912Y-71969D01*
X19875Y-71950D01*
X19856Y-71931D01*
X19669Y-71706D02*
X19669Y-71969D01*
X19669Y-71744D02*
X19650Y-71725D01*
X19612Y-71706D01*
X19556Y-71706D01*
X19519Y-71725D01*
X19500Y-71763D01*
X19500Y-71969D01*
X19031Y-71856D02*
X18844Y-71856D01*
X19069Y-71969D02*
X18937Y-71575D01*
X18806Y-71969D01*
X18675Y-71969D02*
X18675Y-71575D01*
X18581Y-71575D01*
X18525Y-71594D01*
X18488Y-71631D01*
X18469Y-71669D01*
X18450Y-71744D01*
X18450Y-71800D01*
X18469Y-71875D01*
X18488Y-71913D01*
X18525Y-71950D01*
X18581Y-71969D01*
X18675Y-71969D01*
X18056Y-71931D02*
X18075Y-71950D01*
X18131Y-71969D01*
X18169Y-71969D01*
X18225Y-71950D01*
X18263Y-71913D01*
X18281Y-71875D01*
X18300Y-71800D01*
X18300Y-71744D01*
X18281Y-71669D01*
X18263Y-71631D01*
X18225Y-71594D01*
X18169Y-71575D01*
X18131Y-71575D01*
X18075Y-71594D01*
X18056Y-71613D01*
X17419Y-71969D02*
X17419Y-71763D01*
X17438Y-71725D01*
X17475Y-71706D01*
X17550Y-71706D01*
X17588Y-71725D01*
X17419Y-71950D02*
X17456Y-71969D01*
X17550Y-71969D01*
X17588Y-71950D01*
X17606Y-71913D01*
X17606Y-71875D01*
X17588Y-71838D01*
X17550Y-71819D01*
X17456Y-71819D01*
X17419Y-71800D01*
X17231Y-71706D02*
X17231Y-71969D01*
X17231Y-71744D02*
X17213Y-71725D01*
X17175Y-71706D01*
X17119Y-71706D01*
X17081Y-71725D01*
X17063Y-71763D01*
X17063Y-71969D01*
X16706Y-71969D02*
X16706Y-71575D01*
X16706Y-71950D02*
X16744Y-71969D01*
X16819Y-71969D01*
X16856Y-71950D01*
X16875Y-71931D01*
X16894Y-71894D01*
X16894Y-71781D01*
X16875Y-71744D01*
X16856Y-71725D01*
X16819Y-71706D01*
X16744Y-71706D01*
X16706Y-71725D01*
X16238Y-71856D02*
X16050Y-71856D01*
X16275Y-71969D02*
X16144Y-71575D01*
X16013Y-71969D01*
X15882Y-71969D02*
X15882Y-71706D01*
X15882Y-71744D02*
X15863Y-71725D01*
X15825Y-71706D01*
X15769Y-71706D01*
X15732Y-71725D01*
X15713Y-71763D01*
X15713Y-71969D01*
X15713Y-71763D02*
X15694Y-71725D01*
X15657Y-71706D01*
X15600Y-71706D01*
X15563Y-71725D01*
X15544Y-71763D01*
X15544Y-71969D01*
X15357Y-71706D02*
X15357Y-72100D01*
X15357Y-71725D02*
X15319Y-71706D01*
X15244Y-71706D01*
X15207Y-71725D01*
X15188Y-71744D01*
X15169Y-71781D01*
X15169Y-71894D01*
X15188Y-71931D01*
X15207Y-71950D01*
X15244Y-71969D01*
X15319Y-71969D01*
X15357Y-71950D01*
X14757Y-71706D02*
X14607Y-71706D01*
X14700Y-71969D02*
X14700Y-71631D01*
X14682Y-71594D01*
X14644Y-71575D01*
X14607Y-71575D01*
X14476Y-71969D02*
X14476Y-71706D01*
X14476Y-71781D02*
X14457Y-71744D01*
X14438Y-71725D01*
X14401Y-71706D01*
X14363Y-71706D01*
X14176Y-71969D02*
X14213Y-71950D01*
X14232Y-71931D01*
X14251Y-71894D01*
X14251Y-71781D01*
X14232Y-71744D01*
X14213Y-71725D01*
X14176Y-71706D01*
X14119Y-71706D01*
X14082Y-71725D01*
X14063Y-71744D01*
X14044Y-71781D01*
X14044Y-71894D01*
X14063Y-71931D01*
X14082Y-71950D01*
X14119Y-71969D01*
X14176Y-71969D01*
X13876Y-71969D02*
X13876Y-71706D01*
X13876Y-71744D02*
X13857Y-71725D01*
X13819Y-71706D01*
X13763Y-71706D01*
X13726Y-71725D01*
X13707Y-71763D01*
X13707Y-71969D01*
X13707Y-71763D02*
X13688Y-71725D01*
X13651Y-71706D01*
X13594Y-71706D01*
X13557Y-71725D01*
X13538Y-71763D01*
X13538Y-71969D01*
X13051Y-71819D02*
X12751Y-71819D01*
X12901Y-71969D02*
X12901Y-71669D01*
X12601Y-71575D02*
X12357Y-71575D01*
X12488Y-71725D01*
X12432Y-71725D01*
X12395Y-71744D01*
X12376Y-71763D01*
X12357Y-71800D01*
X12357Y-71894D01*
X12376Y-71931D01*
X12395Y-71950D01*
X12432Y-71969D01*
X12544Y-71969D01*
X12582Y-71950D01*
X12601Y-71931D01*
X12245Y-71575D02*
X12113Y-71969D01*
X11982Y-71575D01*
X11888Y-71575D02*
X11645Y-71575D01*
X11776Y-71725D01*
X11720Y-71725D01*
X11682Y-71744D01*
X11663Y-71763D01*
X11645Y-71800D01*
X11645Y-71894D01*
X11663Y-71931D01*
X11682Y-71950D01*
X11720Y-71969D01*
X11832Y-71969D01*
X11870Y-71950D01*
X11888Y-71931D01*
X11476Y-71931D02*
X11457Y-71950D01*
X11476Y-71969D01*
X11495Y-71950D01*
X11476Y-71931D01*
X11476Y-71969D01*
X11476Y-71725D02*
X11457Y-71744D01*
X11476Y-71763D01*
X11495Y-71744D01*
X11476Y-71725D01*
X11476Y-71763D01*
X21018Y-72619D02*
X21243Y-72619D01*
X21131Y-72619D02*
X21131Y-72225D01*
X21168Y-72281D01*
X21206Y-72319D01*
X21243Y-72337D01*
X20681Y-72619D02*
X20681Y-72412D01*
X20700Y-72375D01*
X20737Y-72356D01*
X20812Y-72356D01*
X20850Y-72375D01*
X20681Y-72600D02*
X20718Y-72619D01*
X20812Y-72619D01*
X20850Y-72600D01*
X20868Y-72562D01*
X20868Y-72525D01*
X20850Y-72487D01*
X20812Y-72469D01*
X20718Y-72469D01*
X20681Y-72450D01*
X20531Y-72769D02*
X20512Y-72750D01*
X20475Y-72694D01*
X20456Y-72656D01*
X20437Y-72600D01*
X20419Y-72506D01*
X20419Y-72431D01*
X20437Y-72337D01*
X20456Y-72281D01*
X20475Y-72244D01*
X20512Y-72187D01*
X20531Y-72169D01*
X19706Y-72581D02*
X19725Y-72600D01*
X19781Y-72619D01*
X19819Y-72619D01*
X19875Y-72600D01*
X19912Y-72562D01*
X19931Y-72525D01*
X19950Y-72450D01*
X19950Y-72394D01*
X19931Y-72319D01*
X19912Y-72281D01*
X19875Y-72244D01*
X19819Y-72225D01*
X19781Y-72225D01*
X19725Y-72244D01*
X19706Y-72262D01*
X19481Y-72619D02*
X19519Y-72600D01*
X19537Y-72581D01*
X19556Y-72544D01*
X19556Y-72431D01*
X19537Y-72394D01*
X19519Y-72375D01*
X19481Y-72356D01*
X19425Y-72356D01*
X19387Y-72375D01*
X19369Y-72394D01*
X19350Y-72431D01*
X19350Y-72544D01*
X19369Y-72581D01*
X19387Y-72600D01*
X19425Y-72619D01*
X19481Y-72619D01*
X19181Y-72356D02*
X19181Y-72619D01*
X19181Y-72394D02*
X19162Y-72375D01*
X19125Y-72356D01*
X19069Y-72356D01*
X19031Y-72375D01*
X19012Y-72412D01*
X19012Y-72619D01*
X18825Y-72356D02*
X18825Y-72619D01*
X18825Y-72394D02*
X18806Y-72375D01*
X18769Y-72356D01*
X18712Y-72356D01*
X18675Y-72375D01*
X18656Y-72412D01*
X18656Y-72619D01*
X18319Y-72600D02*
X18356Y-72619D01*
X18431Y-72619D01*
X18469Y-72600D01*
X18488Y-72562D01*
X18488Y-72412D01*
X18469Y-72375D01*
X18431Y-72356D01*
X18356Y-72356D01*
X18319Y-72375D01*
X18300Y-72412D01*
X18300Y-72450D01*
X18488Y-72487D01*
X17963Y-72600D02*
X18000Y-72619D01*
X18075Y-72619D01*
X18113Y-72600D01*
X18131Y-72581D01*
X18150Y-72544D01*
X18150Y-72431D01*
X18131Y-72394D01*
X18113Y-72375D01*
X18075Y-72356D01*
X18000Y-72356D01*
X17963Y-72375D01*
X17850Y-72356D02*
X17700Y-72356D01*
X17794Y-72225D02*
X17794Y-72562D01*
X17775Y-72600D01*
X17738Y-72619D01*
X17700Y-72619D01*
X17325Y-72225D02*
X17194Y-72619D01*
X17063Y-72225D01*
X16950Y-72506D02*
X16763Y-72506D01*
X16988Y-72619D02*
X16856Y-72225D01*
X16725Y-72619D01*
X16613Y-72506D02*
X16425Y-72506D01*
X16650Y-72619D02*
X16519Y-72225D01*
X16388Y-72619D01*
X15957Y-72619D02*
X15957Y-72225D01*
X15788Y-72619D02*
X15788Y-72412D01*
X15807Y-72375D01*
X15844Y-72356D01*
X15900Y-72356D01*
X15938Y-72375D01*
X15957Y-72394D01*
X15450Y-72600D02*
X15488Y-72619D01*
X15563Y-72619D01*
X15600Y-72600D01*
X15619Y-72562D01*
X15619Y-72412D01*
X15600Y-72375D01*
X15563Y-72356D01*
X15488Y-72356D01*
X15450Y-72375D01*
X15432Y-72412D01*
X15432Y-72450D01*
X15619Y-72487D01*
X15094Y-72619D02*
X15094Y-72412D01*
X15113Y-72375D01*
X15150Y-72356D01*
X15225Y-72356D01*
X15263Y-72375D01*
X15094Y-72600D02*
X15132Y-72619D01*
X15225Y-72619D01*
X15263Y-72600D01*
X15282Y-72562D01*
X15282Y-72525D01*
X15263Y-72487D01*
X15225Y-72469D01*
X15132Y-72469D01*
X15094Y-72450D01*
X14738Y-72619D02*
X14738Y-72225D01*
X14738Y-72600D02*
X14775Y-72619D01*
X14850Y-72619D01*
X14888Y-72600D01*
X14907Y-72581D01*
X14925Y-72544D01*
X14925Y-72431D01*
X14907Y-72394D01*
X14888Y-72375D01*
X14850Y-72356D01*
X14775Y-72356D01*
X14738Y-72375D01*
X14401Y-72600D02*
X14438Y-72619D01*
X14513Y-72619D01*
X14550Y-72600D01*
X14569Y-72562D01*
X14569Y-72412D01*
X14550Y-72375D01*
X14513Y-72356D01*
X14438Y-72356D01*
X14401Y-72375D01*
X14382Y-72412D01*
X14382Y-72450D01*
X14569Y-72487D01*
X14213Y-72619D02*
X14213Y-72356D01*
X14213Y-72431D02*
X14194Y-72394D01*
X14176Y-72375D01*
X14138Y-72356D01*
X14101Y-72356D01*
X13726Y-72356D02*
X13576Y-72356D01*
X13669Y-72225D02*
X13669Y-72562D01*
X13651Y-72600D01*
X13613Y-72619D01*
X13576Y-72619D01*
X13388Y-72619D02*
X13426Y-72600D01*
X13444Y-72581D01*
X13463Y-72544D01*
X13463Y-72431D01*
X13444Y-72394D01*
X13426Y-72375D01*
X13388Y-72356D01*
X13332Y-72356D01*
X13294Y-72375D01*
X13276Y-72394D01*
X13257Y-72431D01*
X13257Y-72544D01*
X13276Y-72581D01*
X13294Y-72600D01*
X13332Y-72619D01*
X13388Y-72619D01*
X12788Y-72469D02*
X12488Y-72469D01*
X12638Y-72619D02*
X12638Y-72319D01*
X12338Y-72225D02*
X12095Y-72225D01*
X12226Y-72375D01*
X12170Y-72375D01*
X12132Y-72394D01*
X12113Y-72412D01*
X12095Y-72450D01*
X12095Y-72544D01*
X12113Y-72581D01*
X12132Y-72600D01*
X12170Y-72619D01*
X12282Y-72619D01*
X12320Y-72600D01*
X12338Y-72581D01*
X11982Y-72225D02*
X11851Y-72619D01*
X11720Y-72225D01*
X11626Y-72225D02*
X11382Y-72225D01*
X11513Y-72375D01*
X11457Y-72375D01*
X11420Y-72394D01*
X11401Y-72412D01*
X11382Y-72450D01*
X11382Y-72544D01*
X11401Y-72581D01*
X11420Y-72600D01*
X11457Y-72619D01*
X11570Y-72619D01*
X11607Y-72600D01*
X11626Y-72581D01*
X21168Y-73268D02*
X21206Y-73249D01*
X21225Y-73231D01*
X21243Y-73193D01*
X21243Y-73081D01*
X21225Y-73043D01*
X21206Y-73024D01*
X21168Y-73006D01*
X21112Y-73006D01*
X21075Y-73024D01*
X21056Y-73043D01*
X21037Y-73081D01*
X21037Y-73193D01*
X21056Y-73231D01*
X21075Y-73249D01*
X21112Y-73268D01*
X21168Y-73268D01*
X20868Y-73268D02*
X20868Y-73006D01*
X20868Y-73081D02*
X20850Y-73043D01*
X20831Y-73024D01*
X20793Y-73006D01*
X20756Y-73006D01*
X21018Y-73918D02*
X21243Y-73918D01*
X21131Y-73918D02*
X21131Y-73524D01*
X21168Y-73580D01*
X21206Y-73618D01*
X21243Y-73637D01*
X20850Y-73918D02*
X20850Y-73524D01*
X20850Y-73674D02*
X20812Y-73655D01*
X20737Y-73655D01*
X20700Y-73674D01*
X20681Y-73693D01*
X20662Y-73730D01*
X20662Y-73843D01*
X20681Y-73880D01*
X20700Y-73899D01*
X20737Y-73918D01*
X20812Y-73918D01*
X20850Y-73899D01*
X20531Y-74068D02*
X20512Y-74049D01*
X20475Y-73993D01*
X20456Y-73955D01*
X20437Y-73899D01*
X20419Y-73805D01*
X20419Y-73730D01*
X20437Y-73637D01*
X20456Y-73580D01*
X20475Y-73543D01*
X20512Y-73487D01*
X20531Y-73468D01*
X19931Y-73918D02*
X19931Y-73524D01*
X19837Y-73524D01*
X19781Y-73543D01*
X19744Y-73580D01*
X19725Y-73618D01*
X19706Y-73693D01*
X19706Y-73749D01*
X19725Y-73824D01*
X19744Y-73862D01*
X19781Y-73899D01*
X19837Y-73918D01*
X19931Y-73918D01*
X19537Y-73918D02*
X19537Y-73655D01*
X19537Y-73524D02*
X19556Y-73543D01*
X19537Y-73562D01*
X19519Y-73543D01*
X19537Y-73524D01*
X19537Y-73562D01*
X19369Y-73899D02*
X19331Y-73918D01*
X19256Y-73918D01*
X19219Y-73899D01*
X19200Y-73862D01*
X19200Y-73843D01*
X19219Y-73805D01*
X19256Y-73787D01*
X19312Y-73787D01*
X19350Y-73768D01*
X19369Y-73730D01*
X19369Y-73712D01*
X19350Y-73674D01*
X19312Y-73655D01*
X19256Y-73655D01*
X19219Y-73674D01*
X18862Y-73899D02*
X18900Y-73918D01*
X18975Y-73918D01*
X19012Y-73899D01*
X19031Y-73880D01*
X19050Y-73843D01*
X19050Y-73730D01*
X19031Y-73693D01*
X19012Y-73674D01*
X18975Y-73655D01*
X18900Y-73655D01*
X18862Y-73674D01*
X18637Y-73918D02*
X18675Y-73899D01*
X18694Y-73880D01*
X18712Y-73843D01*
X18712Y-73730D01*
X18694Y-73693D01*
X18675Y-73674D01*
X18637Y-73655D01*
X18581Y-73655D01*
X18544Y-73674D01*
X18525Y-73693D01*
X18506Y-73730D01*
X18506Y-73843D01*
X18525Y-73880D01*
X18544Y-73899D01*
X18581Y-73918D01*
X18637Y-73918D01*
X18338Y-73655D02*
X18338Y-73918D01*
X18338Y-73693D02*
X18319Y-73674D01*
X18281Y-73655D01*
X18225Y-73655D01*
X18188Y-73674D01*
X18169Y-73712D01*
X18169Y-73918D01*
X17981Y-73655D02*
X17981Y-73918D01*
X17981Y-73693D02*
X17963Y-73674D01*
X17925Y-73655D01*
X17869Y-73655D01*
X17831Y-73674D01*
X17813Y-73712D01*
X17813Y-73918D01*
X17475Y-73899D02*
X17513Y-73918D01*
X17588Y-73918D01*
X17625Y-73899D01*
X17644Y-73862D01*
X17644Y-73712D01*
X17625Y-73674D01*
X17588Y-73655D01*
X17513Y-73655D01*
X17475Y-73674D01*
X17456Y-73712D01*
X17456Y-73749D01*
X17644Y-73787D01*
X17119Y-73899D02*
X17156Y-73918D01*
X17231Y-73918D01*
X17269Y-73899D01*
X17288Y-73880D01*
X17306Y-73843D01*
X17306Y-73730D01*
X17288Y-73693D01*
X17269Y-73674D01*
X17231Y-73655D01*
X17156Y-73655D01*
X17119Y-73674D01*
X17006Y-73655D02*
X16856Y-73655D01*
X16950Y-73524D02*
X16950Y-73862D01*
X16931Y-73899D01*
X16894Y-73918D01*
X16856Y-73918D01*
X16482Y-73524D02*
X16350Y-73918D01*
X16219Y-73524D01*
X16107Y-73805D02*
X15919Y-73805D01*
X16144Y-73918D02*
X16013Y-73524D01*
X15882Y-73918D01*
X15769Y-73805D02*
X15582Y-73805D01*
X15807Y-73918D02*
X15675Y-73524D01*
X15544Y-73918D01*
X14944Y-73918D02*
X14944Y-73712D01*
X14963Y-73674D01*
X15000Y-73655D01*
X15075Y-73655D01*
X15113Y-73674D01*
X14944Y-73899D02*
X14982Y-73918D01*
X15075Y-73918D01*
X15113Y-73899D01*
X15132Y-73862D01*
X15132Y-73824D01*
X15113Y-73787D01*
X15075Y-73768D01*
X14982Y-73768D01*
X14944Y-73749D01*
X14757Y-73655D02*
X14757Y-73918D01*
X14757Y-73693D02*
X14738Y-73674D01*
X14700Y-73655D01*
X14644Y-73655D01*
X14607Y-73674D01*
X14588Y-73712D01*
X14588Y-73918D01*
X14232Y-73918D02*
X14232Y-73524D01*
X14232Y-73899D02*
X14269Y-73918D01*
X14344Y-73918D01*
X14382Y-73899D01*
X14401Y-73880D01*
X14419Y-73843D01*
X14419Y-73730D01*
X14401Y-73693D01*
X14382Y-73674D01*
X14344Y-73655D01*
X14269Y-73655D01*
X14232Y-73674D01*
X13688Y-73918D02*
X13726Y-73899D01*
X13744Y-73862D01*
X13744Y-73524D01*
X13538Y-73918D02*
X13538Y-73655D01*
X13538Y-73524D02*
X13557Y-73543D01*
X13538Y-73562D01*
X13519Y-73543D01*
X13538Y-73524D01*
X13538Y-73562D01*
X13351Y-73655D02*
X13351Y-73918D01*
X13351Y-73693D02*
X13332Y-73674D01*
X13294Y-73655D01*
X13238Y-73655D01*
X13201Y-73674D01*
X13182Y-73712D01*
X13182Y-73918D01*
X12994Y-73918D02*
X12994Y-73524D01*
X12957Y-73768D02*
X12844Y-73918D01*
X12844Y-73655D02*
X12994Y-73805D01*
X12376Y-73918D02*
X12376Y-73524D01*
X12226Y-73524D01*
X12188Y-73543D01*
X12170Y-73562D01*
X12151Y-73599D01*
X12151Y-73655D01*
X12170Y-73693D01*
X12188Y-73712D01*
X12226Y-73730D01*
X12376Y-73730D01*
X11776Y-73918D02*
X12001Y-73918D01*
X11888Y-73918D02*
X11888Y-73524D01*
X11926Y-73580D01*
X11963Y-73618D01*
X12001Y-73637D01*
X11645Y-73524D02*
X11401Y-73524D01*
X11532Y-73674D01*
X11476Y-73674D01*
X11438Y-73693D01*
X11420Y-73712D01*
X11401Y-73749D01*
X11401Y-73843D01*
X11420Y-73880D01*
X11438Y-73899D01*
X11476Y-73918D01*
X11588Y-73918D01*
X11626Y-73899D01*
X11645Y-73880D01*
X21018Y-74567D02*
X21243Y-74567D01*
X21131Y-74567D02*
X21131Y-74174D01*
X21168Y-74230D01*
X21206Y-74267D01*
X21243Y-74286D01*
X20850Y-74567D02*
X20850Y-74174D01*
X20850Y-74324D02*
X20812Y-74305D01*
X20737Y-74305D01*
X20700Y-74324D01*
X20681Y-74342D01*
X20662Y-74380D01*
X20662Y-74492D01*
X20681Y-74530D01*
X20700Y-74549D01*
X20737Y-74567D01*
X20812Y-74567D01*
X20850Y-74549D01*
X20531Y-74717D02*
X20512Y-74699D01*
X20475Y-74642D01*
X20456Y-74605D01*
X20437Y-74549D01*
X20419Y-74455D01*
X20419Y-74380D01*
X20437Y-74286D01*
X20456Y-74230D01*
X20475Y-74192D01*
X20512Y-74136D01*
X20531Y-74117D01*
X19931Y-74361D02*
X19800Y-74361D01*
X19744Y-74567D02*
X19931Y-74567D01*
X19931Y-74174D01*
X19744Y-74174D01*
X19575Y-74305D02*
X19575Y-74567D01*
X19575Y-74342D02*
X19556Y-74324D01*
X19519Y-74305D01*
X19462Y-74305D01*
X19425Y-74324D01*
X19406Y-74361D01*
X19406Y-74567D01*
X19050Y-74567D02*
X19050Y-74361D01*
X19069Y-74324D01*
X19106Y-74305D01*
X19181Y-74305D01*
X19219Y-74324D01*
X19050Y-74549D02*
X19087Y-74567D01*
X19181Y-74567D01*
X19219Y-74549D01*
X19237Y-74511D01*
X19237Y-74474D01*
X19219Y-74436D01*
X19181Y-74417D01*
X19087Y-74417D01*
X19050Y-74399D01*
X18862Y-74567D02*
X18862Y-74174D01*
X18862Y-74324D02*
X18825Y-74305D01*
X18750Y-74305D01*
X18712Y-74324D01*
X18694Y-74342D01*
X18675Y-74380D01*
X18675Y-74492D01*
X18694Y-74530D01*
X18712Y-74549D01*
X18750Y-74567D01*
X18825Y-74567D01*
X18862Y-74549D01*
X18450Y-74567D02*
X18488Y-74549D01*
X18506Y-74511D01*
X18506Y-74174D01*
X18150Y-74549D02*
X18188Y-74567D01*
X18263Y-74567D01*
X18300Y-74549D01*
X18319Y-74511D01*
X18319Y-74361D01*
X18300Y-74324D01*
X18263Y-74305D01*
X18188Y-74305D01*
X18150Y-74324D01*
X18131Y-74361D01*
X18131Y-74399D01*
X18319Y-74436D01*
X17663Y-74417D02*
X17363Y-74417D01*
X17513Y-74567D02*
X17513Y-74267D01*
X17213Y-74174D02*
X16969Y-74174D01*
X17100Y-74324D01*
X17044Y-74324D01*
X17006Y-74342D01*
X16988Y-74361D01*
X16969Y-74399D01*
X16969Y-74492D01*
X16988Y-74530D01*
X17006Y-74549D01*
X17044Y-74567D01*
X17156Y-74567D01*
X17194Y-74549D01*
X17213Y-74530D01*
X16856Y-74174D02*
X16725Y-74567D01*
X16594Y-74174D01*
X16500Y-74174D02*
X16257Y-74174D01*
X16388Y-74324D01*
X16332Y-74324D01*
X16294Y-74342D01*
X16275Y-74361D01*
X16257Y-74399D01*
X16257Y-74492D01*
X16275Y-74530D01*
X16294Y-74549D01*
X16332Y-74567D01*
X16444Y-74567D01*
X16482Y-74549D01*
X16500Y-74530D01*
X15619Y-74567D02*
X15619Y-74361D01*
X15638Y-74324D01*
X15675Y-74305D01*
X15750Y-74305D01*
X15788Y-74324D01*
X15619Y-74549D02*
X15657Y-74567D01*
X15750Y-74567D01*
X15788Y-74549D01*
X15807Y-74511D01*
X15807Y-74474D01*
X15788Y-74436D01*
X15750Y-74417D01*
X15657Y-74417D01*
X15619Y-74399D01*
X15450Y-74549D02*
X15413Y-74567D01*
X15338Y-74567D01*
X15300Y-74549D01*
X15282Y-74511D01*
X15282Y-74492D01*
X15300Y-74455D01*
X15338Y-74436D01*
X15394Y-74436D01*
X15432Y-74417D01*
X15450Y-74380D01*
X15450Y-74361D01*
X15432Y-74324D01*
X15394Y-74305D01*
X15338Y-74305D01*
X15300Y-74324D01*
X14869Y-74305D02*
X14719Y-74305D01*
X14813Y-74567D02*
X14813Y-74230D01*
X14794Y-74192D01*
X14757Y-74174D01*
X14719Y-74174D01*
X14532Y-74567D02*
X14569Y-74549D01*
X14588Y-74530D01*
X14607Y-74492D01*
X14607Y-74380D01*
X14588Y-74342D01*
X14569Y-74324D01*
X14532Y-74305D01*
X14476Y-74305D01*
X14438Y-74324D01*
X14419Y-74342D01*
X14401Y-74380D01*
X14401Y-74492D01*
X14419Y-74530D01*
X14438Y-74549D01*
X14476Y-74567D01*
X14532Y-74567D01*
X14232Y-74567D02*
X14232Y-74305D01*
X14232Y-74380D02*
X14213Y-74342D01*
X14194Y-74324D01*
X14157Y-74305D01*
X14119Y-74305D01*
X13707Y-74549D02*
X13651Y-74567D01*
X13557Y-74567D01*
X13519Y-74549D01*
X13501Y-74530D01*
X13482Y-74492D01*
X13482Y-74455D01*
X13501Y-74417D01*
X13519Y-74399D01*
X13557Y-74380D01*
X13632Y-74361D01*
X13669Y-74342D01*
X13688Y-74324D01*
X13707Y-74286D01*
X13707Y-74249D01*
X13688Y-74211D01*
X13669Y-74192D01*
X13632Y-74174D01*
X13538Y-74174D01*
X13482Y-74192D01*
X13313Y-74567D02*
X13313Y-74174D01*
X13219Y-74174D01*
X13163Y-74192D01*
X13126Y-74230D01*
X13107Y-74267D01*
X13088Y-74342D01*
X13088Y-74399D01*
X13107Y-74474D01*
X13126Y-74511D01*
X13163Y-74549D01*
X13219Y-74567D01*
X13313Y-74567D01*
X12694Y-74567D02*
X12826Y-74380D01*
X12919Y-74567D02*
X12919Y-74174D01*
X12769Y-74174D01*
X12732Y-74192D01*
X12713Y-74211D01*
X12694Y-74249D01*
X12694Y-74305D01*
X12713Y-74342D01*
X12732Y-74361D01*
X12769Y-74380D01*
X12919Y-74380D01*
X12544Y-74455D02*
X12357Y-74455D01*
X12582Y-74567D02*
X12451Y-74174D01*
X12320Y-74567D01*
X12188Y-74567D02*
X12188Y-74174D01*
X12057Y-74455D01*
X11926Y-74174D01*
X11926Y-74567D01*
X21243Y-74861D02*
X21225Y-74842D01*
X21187Y-74823D01*
X21093Y-74823D01*
X21056Y-74842D01*
X21037Y-74861D01*
X21018Y-74898D01*
X21018Y-74936D01*
X21037Y-74992D01*
X21262Y-75217D01*
X21018Y-75217D01*
X20887Y-75367D02*
X20868Y-75348D01*
X20831Y-75292D01*
X20812Y-75254D01*
X20793Y-75198D01*
X20775Y-75104D01*
X20775Y-75029D01*
X20793Y-74936D01*
X20812Y-74880D01*
X20831Y-74842D01*
X20868Y-74786D01*
X20887Y-74767D01*
X20100Y-75217D02*
X20287Y-75217D01*
X20287Y-74823D01*
X19969Y-75217D02*
X19969Y-74955D01*
X19969Y-74823D02*
X19987Y-74842D01*
X19969Y-74861D01*
X19950Y-74842D01*
X19969Y-74823D01*
X19969Y-74861D01*
X19781Y-74955D02*
X19781Y-75217D01*
X19781Y-74992D02*
X19762Y-74973D01*
X19725Y-74955D01*
X19669Y-74955D01*
X19631Y-74973D01*
X19612Y-75011D01*
X19612Y-75217D01*
X19425Y-75217D02*
X19425Y-74823D01*
X19387Y-75067D02*
X19275Y-75217D01*
X19275Y-74955D02*
X19425Y-75104D01*
X18806Y-75217D02*
X18806Y-74823D01*
X18656Y-74823D01*
X18619Y-74842D01*
X18600Y-74861D01*
X18581Y-74898D01*
X18581Y-74955D01*
X18600Y-74992D01*
X18619Y-75011D01*
X18656Y-75029D01*
X18806Y-75029D01*
X18206Y-75217D02*
X18431Y-75217D01*
X18319Y-75217D02*
X18319Y-74823D01*
X18356Y-74880D01*
X18394Y-74917D01*
X18431Y-74936D01*
X17869Y-74823D02*
X17944Y-74823D01*
X17981Y-74842D01*
X18000Y-74861D01*
X18038Y-74917D01*
X18056Y-74992D01*
X18056Y-75142D01*
X18038Y-75179D01*
X18019Y-75198D01*
X17981Y-75217D01*
X17906Y-75217D01*
X17869Y-75198D01*
X17850Y-75179D01*
X17831Y-75142D01*
X17831Y-75048D01*
X17850Y-75011D01*
X17869Y-74992D01*
X17906Y-74973D01*
X17981Y-74973D01*
X18019Y-74992D01*
X18038Y-75011D01*
X18056Y-75048D01*
X17044Y-75217D02*
X17063Y-75217D01*
X17100Y-75198D01*
X17156Y-75142D01*
X17250Y-75029D01*
X17288Y-74973D01*
X17306Y-74917D01*
X17306Y-74880D01*
X17288Y-74842D01*
X17250Y-74823D01*
X17231Y-74823D01*
X17194Y-74842D01*
X17175Y-74880D01*
X17175Y-74898D01*
X17194Y-74936D01*
X17213Y-74955D01*
X17325Y-75029D01*
X17344Y-75048D01*
X17363Y-75086D01*
X17363Y-75142D01*
X17344Y-75179D01*
X17325Y-75198D01*
X17288Y-75217D01*
X17231Y-75217D01*
X17194Y-75198D01*
X17175Y-75179D01*
X17119Y-75104D01*
X17100Y-75048D01*
X17100Y-75011D01*
X16575Y-75217D02*
X16575Y-74823D01*
X16425Y-74823D01*
X16388Y-74842D01*
X16369Y-74861D01*
X16350Y-74898D01*
X16350Y-74955D01*
X16369Y-74992D01*
X16388Y-75011D01*
X16425Y-75029D01*
X16575Y-75029D01*
X15975Y-75217D02*
X16200Y-75217D01*
X16088Y-75217D02*
X16088Y-74823D01*
X16125Y-74880D01*
X16163Y-74917D01*
X16200Y-74936D01*
X15844Y-74823D02*
X15582Y-74823D01*
X15750Y-75217D01*
G54D12*
X14253Y-27244D02*
X14140Y-27244D01*
X14275Y-27311D02*
X14197Y-27075D01*
X14118Y-27311D01*
X14095Y-27334D02*
X13915Y-27334D01*
X13724Y-27289D02*
X13735Y-27300D01*
X13769Y-27311D01*
X13792Y-27311D01*
X13825Y-27300D01*
X13848Y-27277D01*
X13859Y-27255D01*
X13870Y-27210D01*
X13870Y-27176D01*
X13859Y-27131D01*
X13848Y-27109D01*
X13825Y-27086D01*
X13792Y-27075D01*
X13769Y-27075D01*
X13735Y-27086D01*
X13724Y-27097D01*
X13634Y-27300D02*
X13600Y-27311D01*
X13544Y-27311D01*
X13522Y-27300D01*
X13510Y-27289D01*
X13499Y-27266D01*
X13499Y-27244D01*
X13510Y-27221D01*
X13522Y-27210D01*
X13544Y-27199D01*
X13589Y-27187D01*
X13612Y-27176D01*
X13623Y-27165D01*
X13634Y-27142D01*
X13634Y-27120D01*
X13623Y-27097D01*
X13612Y-27086D01*
X13589Y-27075D01*
X13533Y-27075D01*
X13499Y-27086D01*
X13398Y-27154D02*
X13398Y-27311D01*
X13398Y-27176D02*
X13387Y-27165D01*
X13364Y-27154D01*
X13330Y-27154D01*
X13308Y-27165D01*
X13297Y-27187D01*
X13297Y-27311D01*
X13070Y-27075D02*
X13014Y-27311D01*
X12969Y-27142D01*
X12924Y-27311D01*
X12868Y-27075D01*
X12778Y-27187D02*
X12699Y-27187D01*
X12665Y-27311D02*
X12778Y-27311D01*
X12778Y-27075D01*
X12665Y-27075D01*
X12564Y-27154D02*
X12564Y-27311D01*
X12564Y-27176D02*
X12553Y-27165D01*
X12530Y-27154D01*
X12497Y-27154D01*
X12474Y-27165D01*
X12463Y-27187D01*
X12463Y-27311D01*
X14395Y-25174D02*
X14361Y-25185D01*
X14305Y-25185D01*
X14282Y-25174D01*
X14271Y-25163D01*
X14260Y-25140D01*
X14260Y-25118D01*
X14271Y-25095D01*
X14282Y-25084D01*
X14305Y-25073D01*
X14350Y-25061D01*
X14372Y-25050D01*
X14384Y-25039D01*
X14395Y-25016D01*
X14395Y-24994D01*
X14384Y-24971D01*
X14372Y-24960D01*
X14350Y-24949D01*
X14294Y-24949D01*
X14260Y-24960D01*
X14024Y-25163D02*
X14035Y-25174D01*
X14069Y-25185D01*
X14091Y-25185D01*
X14125Y-25174D01*
X14147Y-25151D01*
X14159Y-25129D01*
X14170Y-25084D01*
X14170Y-25050D01*
X14159Y-25005D01*
X14147Y-24983D01*
X14125Y-24960D01*
X14091Y-24949D01*
X14069Y-24949D01*
X14035Y-24960D01*
X14024Y-24971D01*
X13810Y-25185D02*
X13922Y-25185D01*
X13922Y-24949D01*
X13731Y-25185D02*
X13731Y-24949D01*
X13596Y-25185D02*
X13697Y-25050D01*
X13596Y-24949D02*
X13731Y-25084D01*
X12238Y-25108D02*
X12125Y-25108D01*
X12260Y-25175D02*
X12182Y-24939D01*
X12103Y-25175D01*
X11889Y-25153D02*
X11901Y-25164D01*
X11934Y-25175D01*
X11957Y-25175D01*
X11991Y-25164D01*
X12013Y-25142D01*
X12024Y-25119D01*
X12035Y-25074D01*
X12035Y-25040D01*
X12024Y-24995D01*
X12013Y-24973D01*
X11991Y-24950D01*
X11957Y-24939D01*
X11934Y-24939D01*
X11901Y-24950D01*
X11889Y-24962D01*
X11676Y-25175D02*
X11788Y-25175D01*
X11788Y-24939D01*
X11597Y-25175D02*
X11597Y-24939D01*
X11462Y-25175D02*
X11563Y-25040D01*
X11462Y-24939D02*
X11597Y-25074D01*
X13423Y-25175D02*
X13423Y-24939D01*
X13367Y-24939D01*
X13333Y-24950D01*
X13311Y-24973D01*
X13300Y-24995D01*
X13288Y-25040D01*
X13288Y-25074D01*
X13300Y-25119D01*
X13311Y-25142D01*
X13333Y-25164D01*
X13367Y-25175D01*
X13423Y-25175D01*
X13142Y-24939D02*
X13097Y-24939D01*
X13075Y-24950D01*
X13052Y-24973D01*
X13041Y-25018D01*
X13041Y-25097D01*
X13052Y-25142D01*
X13075Y-25164D01*
X13097Y-25175D01*
X13142Y-25175D01*
X13165Y-25164D01*
X13187Y-25142D01*
X13198Y-25097D01*
X13198Y-25018D01*
X13187Y-24973D01*
X13165Y-24950D01*
X13142Y-24939D01*
X12940Y-24939D02*
X12940Y-25130D01*
X12928Y-25153D01*
X12917Y-25164D01*
X12895Y-25175D01*
X12850Y-25175D01*
X12827Y-25164D01*
X12816Y-25153D01*
X12805Y-25130D01*
X12805Y-24939D01*
X12726Y-24939D02*
X12591Y-24939D01*
X12658Y-25175D02*
X12658Y-24939D01*
X12523Y-25108D02*
X12411Y-25108D01*
X12546Y-25175D02*
X12467Y-24939D01*
X12388Y-25175D01*
X11275Y-25175D02*
X11275Y-24939D01*
X11219Y-24939D01*
X11185Y-24950D01*
X11162Y-24973D01*
X11151Y-24995D01*
X11140Y-25040D01*
X11140Y-25074D01*
X11151Y-25119D01*
X11162Y-25142D01*
X11185Y-25164D01*
X11219Y-25175D01*
X11275Y-25175D01*
X10994Y-24939D02*
X10949Y-24939D01*
X10926Y-24950D01*
X10904Y-24973D01*
X10892Y-25018D01*
X10892Y-25097D01*
X10904Y-25142D01*
X10926Y-25164D01*
X10949Y-25175D01*
X10994Y-25175D01*
X11016Y-25164D01*
X11039Y-25142D01*
X11050Y-25097D01*
X11050Y-25018D01*
X11039Y-24973D01*
X11016Y-24950D01*
X10994Y-24939D01*
X10791Y-24939D02*
X10791Y-25130D01*
X10780Y-25153D01*
X10769Y-25164D01*
X10746Y-25175D01*
X10701Y-25175D01*
X10679Y-25164D01*
X10667Y-25153D01*
X10656Y-25130D01*
X10656Y-24939D01*
X10577Y-24939D02*
X10442Y-24939D01*
X10510Y-25175D02*
X10510Y-24939D01*
X10285Y-25052D02*
X10251Y-25063D01*
X10240Y-25074D01*
X10229Y-25097D01*
X10229Y-25130D01*
X10240Y-25153D01*
X10251Y-25164D01*
X10274Y-25175D01*
X10364Y-25175D01*
X10364Y-24939D01*
X10285Y-24939D01*
X10262Y-24950D01*
X10251Y-24962D01*
X10240Y-24984D01*
X10240Y-25007D01*
X10251Y-25029D01*
X10262Y-25040D01*
X10285Y-25052D01*
X10364Y-25052D01*
G54D11*
X18999Y-26212D02*
X18943Y-26231D01*
X18849Y-26231D01*
X18812Y-26212D01*
X18793Y-26193D01*
X18774Y-26156D01*
X18774Y-26118D01*
X18793Y-26081D01*
X18812Y-26062D01*
X18849Y-26043D01*
X18924Y-26025D01*
X18962Y-26006D01*
X18981Y-25987D01*
X18999Y-25950D01*
X18999Y-25912D01*
X18981Y-25875D01*
X18962Y-25856D01*
X18924Y-25837D01*
X18831Y-25837D01*
X18774Y-25856D01*
X18643Y-25968D02*
X18568Y-26231D01*
X18493Y-26043D01*
X18418Y-26231D01*
X18343Y-25968D01*
X18024Y-26231D02*
X18024Y-26025D01*
X18043Y-25987D01*
X18081Y-25968D01*
X18156Y-25968D01*
X18193Y-25987D01*
X18024Y-26212D02*
X18062Y-26231D01*
X18156Y-26231D01*
X18193Y-26212D01*
X18212Y-26175D01*
X18212Y-26137D01*
X18193Y-26100D01*
X18156Y-26081D01*
X18062Y-26081D01*
X18024Y-26062D01*
X17781Y-26231D02*
X17818Y-26212D01*
X17837Y-26175D01*
X17837Y-25837D01*
X17574Y-26231D02*
X17612Y-26212D01*
X17631Y-26175D01*
X17631Y-25837D01*
X17368Y-26231D02*
X17406Y-26212D01*
X17425Y-26193D01*
X17443Y-26156D01*
X17443Y-26043D01*
X17425Y-26006D01*
X17406Y-25987D01*
X17368Y-25968D01*
X17312Y-25968D01*
X17275Y-25987D01*
X17256Y-26006D01*
X17237Y-26043D01*
X17237Y-26156D01*
X17256Y-26193D01*
X17275Y-26212D01*
X17312Y-26231D01*
X17368Y-26231D01*
X17106Y-25968D02*
X17031Y-26231D01*
X16956Y-26043D01*
X16881Y-26231D01*
X16806Y-25968D01*
X16412Y-25837D02*
X16281Y-26231D01*
X16150Y-25837D01*
X15850Y-26231D02*
X15850Y-25837D01*
X15850Y-26212D02*
X15887Y-26231D01*
X15962Y-26231D01*
X16000Y-26212D01*
X16018Y-26193D01*
X16037Y-26156D01*
X16037Y-26043D01*
X16018Y-26006D01*
X16000Y-25987D01*
X15962Y-25968D01*
X15887Y-25968D01*
X15850Y-25987D01*
X15494Y-26231D02*
X15494Y-25837D01*
X15494Y-26212D02*
X15531Y-26231D01*
X15606Y-26231D01*
X15643Y-26212D01*
X15662Y-26193D01*
X15681Y-26156D01*
X15681Y-26043D01*
X15662Y-26006D01*
X15643Y-25987D01*
X15606Y-25968D01*
X15531Y-25968D01*
X15494Y-25987D01*
X15006Y-25968D02*
X14706Y-26081D01*
X15006Y-26193D01*
X18793Y-26880D02*
X18981Y-26880D01*
X18981Y-26487D01*
X18662Y-26880D02*
X18662Y-26618D01*
X18662Y-26487D02*
X18681Y-26505D01*
X18662Y-26524D01*
X18643Y-26505D01*
X18662Y-26487D01*
X18662Y-26524D01*
X18474Y-26618D02*
X18474Y-26880D01*
X18474Y-26655D02*
X18456Y-26637D01*
X18418Y-26618D01*
X18362Y-26618D01*
X18324Y-26637D01*
X18306Y-26674D01*
X18306Y-26880D01*
X18118Y-26880D02*
X18118Y-26487D01*
X18081Y-26730D02*
X17968Y-26880D01*
X17968Y-26618D02*
X18118Y-26768D01*
X17556Y-26618D02*
X17406Y-26618D01*
X17500Y-26487D02*
X17500Y-26824D01*
X17481Y-26862D01*
X17443Y-26880D01*
X17406Y-26880D01*
X17275Y-26880D02*
X17275Y-26487D01*
X17106Y-26880D02*
X17106Y-26674D01*
X17125Y-26637D01*
X17162Y-26618D01*
X17218Y-26618D01*
X17256Y-26637D01*
X17275Y-26655D01*
X16918Y-26880D02*
X16918Y-26618D01*
X16918Y-26487D02*
X16937Y-26505D01*
X16918Y-26524D01*
X16900Y-26505D01*
X16918Y-26487D01*
X16918Y-26524D01*
X16750Y-26862D02*
X16712Y-26880D01*
X16637Y-26880D01*
X16600Y-26862D01*
X16581Y-26824D01*
X16581Y-26805D01*
X16600Y-26768D01*
X16637Y-26749D01*
X16693Y-26749D01*
X16731Y-26730D01*
X16750Y-26693D01*
X16750Y-26674D01*
X16731Y-26637D01*
X16693Y-26618D01*
X16637Y-26618D01*
X16600Y-26637D01*
X16112Y-26880D02*
X16112Y-26487D01*
X15943Y-26880D02*
X15943Y-26674D01*
X15962Y-26637D01*
X16000Y-26618D01*
X16056Y-26618D01*
X16093Y-26637D01*
X16112Y-26655D01*
X15606Y-26862D02*
X15643Y-26880D01*
X15718Y-26880D01*
X15756Y-26862D01*
X15775Y-26824D01*
X15775Y-26674D01*
X15756Y-26637D01*
X15718Y-26618D01*
X15643Y-26618D01*
X15606Y-26637D01*
X15587Y-26674D01*
X15587Y-26712D01*
X15775Y-26749D01*
X15250Y-26880D02*
X15250Y-26674D01*
X15269Y-26637D01*
X15306Y-26618D01*
X15381Y-26618D01*
X15419Y-26637D01*
X15250Y-26862D02*
X15287Y-26880D01*
X15381Y-26880D01*
X15419Y-26862D01*
X15437Y-26824D01*
X15437Y-26787D01*
X15419Y-26749D01*
X15381Y-26730D01*
X15287Y-26730D01*
X15250Y-26712D01*
X14894Y-26880D02*
X14894Y-26487D01*
X14894Y-26862D02*
X14931Y-26880D01*
X15006Y-26880D01*
X15044Y-26862D01*
X15062Y-26843D01*
X15081Y-26805D01*
X15081Y-26693D01*
X15062Y-26655D01*
X15044Y-26637D01*
X15006Y-26618D01*
X14931Y-26618D01*
X14894Y-26637D01*
X14556Y-26862D02*
X14594Y-26880D01*
X14669Y-26880D01*
X14706Y-26862D01*
X14725Y-26824D01*
X14725Y-26674D01*
X14706Y-26637D01*
X14669Y-26618D01*
X14594Y-26618D01*
X14556Y-26637D01*
X14537Y-26674D01*
X14537Y-26712D01*
X14725Y-26749D01*
X14369Y-26880D02*
X14369Y-26618D01*
X14369Y-26693D02*
X14350Y-26655D01*
X14331Y-26637D01*
X14294Y-26618D01*
X14256Y-26618D01*
X19037Y-27267D02*
X18887Y-27267D01*
X18981Y-27136D02*
X18981Y-27474D01*
X18962Y-27511D01*
X18924Y-27530D01*
X18887Y-27530D01*
X18699Y-27530D02*
X18737Y-27511D01*
X18756Y-27492D01*
X18774Y-27455D01*
X18774Y-27342D01*
X18756Y-27305D01*
X18737Y-27286D01*
X18699Y-27267D01*
X18643Y-27267D01*
X18606Y-27286D01*
X18587Y-27305D01*
X18568Y-27342D01*
X18568Y-27455D01*
X18587Y-27492D01*
X18606Y-27511D01*
X18643Y-27530D01*
X18699Y-27530D01*
X18099Y-27530D02*
X18099Y-27267D01*
X18099Y-27342D02*
X18081Y-27305D01*
X18062Y-27286D01*
X18024Y-27267D01*
X17987Y-27267D01*
X17687Y-27267D02*
X17687Y-27530D01*
X17856Y-27267D02*
X17856Y-27474D01*
X17837Y-27511D01*
X17799Y-27530D01*
X17743Y-27530D01*
X17706Y-27511D01*
X17687Y-27492D01*
X17499Y-27267D02*
X17499Y-27530D01*
X17499Y-27305D02*
X17481Y-27286D01*
X17443Y-27267D01*
X17387Y-27267D01*
X17350Y-27286D01*
X17331Y-27324D01*
X17331Y-27530D01*
X16843Y-27530D02*
X16843Y-27136D01*
X16843Y-27286D02*
X16806Y-27267D01*
X16731Y-27267D01*
X16693Y-27286D01*
X16675Y-27305D01*
X16656Y-27342D01*
X16656Y-27455D01*
X16675Y-27492D01*
X16693Y-27511D01*
X16731Y-27530D01*
X16806Y-27530D01*
X16843Y-27511D01*
X16431Y-27530D02*
X16468Y-27511D01*
X16487Y-27492D01*
X16506Y-27455D01*
X16506Y-27342D01*
X16487Y-27305D01*
X16468Y-27286D01*
X16431Y-27267D01*
X16375Y-27267D01*
X16337Y-27286D01*
X16318Y-27305D01*
X16300Y-27342D01*
X16300Y-27455D01*
X16318Y-27492D01*
X16337Y-27511D01*
X16375Y-27530D01*
X16431Y-27530D01*
X15962Y-27530D02*
X15962Y-27324D01*
X15981Y-27286D01*
X16018Y-27267D01*
X16093Y-27267D01*
X16131Y-27286D01*
X15962Y-27511D02*
X16000Y-27530D01*
X16093Y-27530D01*
X16131Y-27511D01*
X16150Y-27474D01*
X16150Y-27436D01*
X16131Y-27399D01*
X16093Y-27380D01*
X16000Y-27380D01*
X15962Y-27361D01*
X15775Y-27530D02*
X15775Y-27267D01*
X15775Y-27342D02*
X15756Y-27305D01*
X15737Y-27286D01*
X15700Y-27267D01*
X15662Y-27267D01*
X15362Y-27530D02*
X15362Y-27136D01*
X15362Y-27511D02*
X15400Y-27530D01*
X15475Y-27530D01*
X15512Y-27511D01*
X15531Y-27492D01*
X15550Y-27455D01*
X15550Y-27342D01*
X15531Y-27305D01*
X15512Y-27286D01*
X15475Y-27267D01*
X15400Y-27267D01*
X15362Y-27286D01*
X19037Y-28567D02*
X18887Y-28567D01*
X18981Y-28829D02*
X18981Y-28492D01*
X18962Y-28454D01*
X18924Y-28435D01*
X18887Y-28435D01*
X18756Y-28829D02*
X18756Y-28567D01*
X18756Y-28642D02*
X18737Y-28604D01*
X18718Y-28585D01*
X18681Y-28567D01*
X18643Y-28567D01*
X18456Y-28829D02*
X18493Y-28810D01*
X18512Y-28792D01*
X18531Y-28754D01*
X18531Y-28642D01*
X18512Y-28604D01*
X18493Y-28585D01*
X18456Y-28567D01*
X18399Y-28567D01*
X18362Y-28585D01*
X18343Y-28604D01*
X18324Y-28642D01*
X18324Y-28754D01*
X18343Y-28792D01*
X18362Y-28810D01*
X18399Y-28829D01*
X18456Y-28829D01*
X18156Y-28829D02*
X18156Y-28567D01*
X18156Y-28604D02*
X18137Y-28585D01*
X18099Y-28567D01*
X18043Y-28567D01*
X18006Y-28585D01*
X17987Y-28623D01*
X17987Y-28829D01*
X17987Y-28623D02*
X17968Y-28585D01*
X17931Y-28567D01*
X17874Y-28567D01*
X17837Y-28585D01*
X17818Y-28623D01*
X17818Y-28829D01*
X18999Y-29460D02*
X18943Y-29479D01*
X18849Y-29479D01*
X18812Y-29460D01*
X18793Y-29441D01*
X18774Y-29404D01*
X18774Y-29366D01*
X18793Y-29329D01*
X18812Y-29310D01*
X18849Y-29291D01*
X18924Y-29273D01*
X18962Y-29254D01*
X18981Y-29235D01*
X18999Y-29198D01*
X18999Y-29160D01*
X18981Y-29123D01*
X18962Y-29104D01*
X18924Y-29085D01*
X18831Y-29085D01*
X18774Y-29104D01*
X18643Y-29216D02*
X18568Y-29479D01*
X18493Y-29291D01*
X18418Y-29479D01*
X18343Y-29216D01*
X18024Y-29479D02*
X18024Y-29273D01*
X18043Y-29235D01*
X18081Y-29216D01*
X18156Y-29216D01*
X18193Y-29235D01*
X18024Y-29460D02*
X18062Y-29479D01*
X18156Y-29479D01*
X18193Y-29460D01*
X18212Y-29423D01*
X18212Y-29385D01*
X18193Y-29348D01*
X18156Y-29329D01*
X18062Y-29329D01*
X18024Y-29310D01*
X17781Y-29479D02*
X17818Y-29460D01*
X17837Y-29423D01*
X17837Y-29085D01*
X17574Y-29479D02*
X17612Y-29460D01*
X17631Y-29423D01*
X17631Y-29085D01*
X17368Y-29479D02*
X17406Y-29460D01*
X17425Y-29441D01*
X17443Y-29404D01*
X17443Y-29291D01*
X17425Y-29254D01*
X17406Y-29235D01*
X17368Y-29216D01*
X17312Y-29216D01*
X17275Y-29235D01*
X17256Y-29254D01*
X17237Y-29291D01*
X17237Y-29404D01*
X17256Y-29441D01*
X17275Y-29460D01*
X17312Y-29479D01*
X17368Y-29479D01*
X17106Y-29216D02*
X17031Y-29479D01*
X16956Y-29291D01*
X16881Y-29479D01*
X16806Y-29216D01*
X16356Y-29329D02*
X16056Y-29329D01*
X16206Y-29479D02*
X16206Y-29179D01*
X15906Y-29085D02*
X15662Y-29085D01*
X15793Y-29235D01*
X15737Y-29235D01*
X15700Y-29254D01*
X15681Y-29273D01*
X15662Y-29310D01*
X15662Y-29404D01*
X15681Y-29441D01*
X15700Y-29460D01*
X15737Y-29479D01*
X15850Y-29479D01*
X15887Y-29460D01*
X15906Y-29441D01*
X15494Y-29441D02*
X15475Y-29460D01*
X15494Y-29479D01*
X15512Y-29460D01*
X15494Y-29441D01*
X15494Y-29479D01*
X15344Y-29085D02*
X15100Y-29085D01*
X15231Y-29235D01*
X15175Y-29235D01*
X15137Y-29254D01*
X15119Y-29273D01*
X15100Y-29310D01*
X15100Y-29404D01*
X15119Y-29441D01*
X15137Y-29460D01*
X15175Y-29479D01*
X15287Y-29479D01*
X15325Y-29460D01*
X15344Y-29441D01*
X14987Y-29085D02*
X14856Y-29479D01*
X14725Y-29085D01*
X14312Y-29460D02*
X14275Y-29479D01*
X14200Y-29479D01*
X14162Y-29460D01*
X14144Y-29423D01*
X14144Y-29404D01*
X14162Y-29366D01*
X14200Y-29348D01*
X14256Y-29348D01*
X14294Y-29329D01*
X14312Y-29291D01*
X14312Y-29273D01*
X14294Y-29235D01*
X14256Y-29216D01*
X14200Y-29216D01*
X14162Y-29235D01*
X13806Y-29216D02*
X13806Y-29479D01*
X13975Y-29216D02*
X13975Y-29423D01*
X13956Y-29460D01*
X13919Y-29479D01*
X13862Y-29479D01*
X13825Y-29460D01*
X13806Y-29441D01*
X13619Y-29216D02*
X13619Y-29610D01*
X13619Y-29235D02*
X13581Y-29216D01*
X13506Y-29216D01*
X13469Y-29235D01*
X13450Y-29254D01*
X13431Y-29291D01*
X13431Y-29404D01*
X13450Y-29441D01*
X13469Y-29460D01*
X13506Y-29479D01*
X13581Y-29479D01*
X13619Y-29460D01*
X13263Y-29216D02*
X13263Y-29610D01*
X13263Y-29235D02*
X13225Y-29216D01*
X13150Y-29216D01*
X13113Y-29235D01*
X13094Y-29254D01*
X13075Y-29291D01*
X13075Y-29404D01*
X13094Y-29441D01*
X13113Y-29460D01*
X13150Y-29479D01*
X13225Y-29479D01*
X13263Y-29460D01*
X12850Y-29479D02*
X12888Y-29460D01*
X12906Y-29423D01*
X12906Y-29085D01*
X12738Y-29216D02*
X12644Y-29479D01*
X12550Y-29216D02*
X12644Y-29479D01*
X12681Y-29573D01*
X12700Y-29591D01*
X12738Y-29610D01*
G54D13*
X14517Y-28011D02*
X14488Y-28011D01*
X10708Y-26062D02*
X14517Y-26062D01*
X10708Y-26269D02*
X10708Y-26062D01*
X11127Y-26692D02*
G75*
G03X11127Y-26692I-429J0D01*
G74*
G01*
G54D11*
X10433Y-30347D02*
X10414Y-30309D01*
X10414Y-30253D01*
X10433Y-30197D01*
X10470Y-30159D01*
X10508Y-30141D01*
X10583Y-30122D01*
X10639Y-30122D01*
X10714Y-30141D01*
X10751Y-30159D01*
X10789Y-30197D01*
X10808Y-30253D01*
X10808Y-30291D01*
X10789Y-30347D01*
X10770Y-30366D01*
X10639Y-30366D01*
X10639Y-30291D01*
X10545Y-30534D02*
X10808Y-30534D01*
X10583Y-30534D02*
X10564Y-30553D01*
X10545Y-30591D01*
X10545Y-30647D01*
X10564Y-30684D01*
X10601Y-30703D01*
X10808Y-30703D01*
X10808Y-31059D02*
X10414Y-31059D01*
X10789Y-31059D02*
X10808Y-31022D01*
X10808Y-30947D01*
X10789Y-30909D01*
X10770Y-30890D01*
X10733Y-30872D01*
X10620Y-30872D01*
X10583Y-30890D01*
X10564Y-30909D01*
X10545Y-30947D01*
X10545Y-31022D01*
X10564Y-31059D01*
G54D13*
X10226Y-29360D02*
X10226Y-27332D01*
X11092Y-29360D02*
X10226Y-29360D01*
X11092Y-27332D02*
X11092Y-29360D01*
X10216Y-27332D02*
X11092Y-27332D01*
G54D11*
X11819Y-29724D02*
X11819Y-30024D01*
X11969Y-29874D02*
X11669Y-29874D01*
X11575Y-30174D02*
X11575Y-30418D01*
X11725Y-30286D01*
X11725Y-30343D01*
X11744Y-30380D01*
X11763Y-30399D01*
X11800Y-30418D01*
X11894Y-30418D01*
X11931Y-30399D01*
X11950Y-30380D01*
X11969Y-30343D01*
X11969Y-30230D01*
X11950Y-30193D01*
X11931Y-30174D01*
X11931Y-30586D02*
X11950Y-30605D01*
X11969Y-30586D01*
X11950Y-30568D01*
X11931Y-30586D01*
X11969Y-30586D01*
X11575Y-30736D02*
X11575Y-30980D01*
X11725Y-30849D01*
X11725Y-30905D01*
X11744Y-30943D01*
X11763Y-30961D01*
X11800Y-30980D01*
X11894Y-30980D01*
X11931Y-30961D01*
X11950Y-30943D01*
X11969Y-30905D01*
X11969Y-30793D01*
X11950Y-30755D01*
X11931Y-30736D01*
X11575Y-31092D02*
X11969Y-31224D01*
X11575Y-31355D01*
G54D13*
X11200Y-29389D02*
X11200Y-26210D01*
X12244Y-29389D02*
X11200Y-29389D01*
X12244Y-26220D02*
X12244Y-29389D01*
X11210Y-26220D02*
X12244Y-26220D01*
G54D14*
X17933Y-54414D02*
X17933Y-53514D01*
X17933Y-53514D02*
X18583Y-53514D01*
X19283Y-54414D02*
X19933Y-54414D01*
X19933Y-54414D02*
X19933Y-53514D01*
X19933Y-53514D02*
X19283Y-53514D01*
X18583Y-54414D02*
X17933Y-54414D01*
X16501Y-40406D02*
X16501Y-43306D01*
X11501Y-43306D02*
X11501Y-40406D01*
X16501Y-40406D02*
X11501Y-40406D01*
X11501Y-43306D02*
X16501Y-43306D01*
X11501Y-42106D02*
X12001Y-42106D01*
X12001Y-42106D02*
X12001Y-41606D01*
X12001Y-41606D02*
X11501Y-41606D01*
X16501Y-35260D02*
X16501Y-38160D01*
X11501Y-38160D02*
X11501Y-35260D01*
X16501Y-35260D02*
X11501Y-35260D01*
X11501Y-38160D02*
X16501Y-38160D01*
X11501Y-36960D02*
X12001Y-36960D01*
X12001Y-36960D02*
X12001Y-36460D01*
X12001Y-36460D02*
X11501Y-36460D01*
G54D15*
X19850Y-46850D02*
G75*
G03X19850Y-46850I-50J0D01*
G74*
G01*
X19800Y-47300D02*
X19800Y-46900D01*
X19800Y-46900D02*
X19200Y-46900D01*
X19200Y-46900D02*
X19200Y-47300D01*
X19200Y-47700D02*
X19200Y-48100D01*
X19200Y-48100D02*
X19800Y-48100D01*
X19800Y-48100D02*
X19800Y-47700D01*
X17919Y-48000D02*
G75*
G03X17919Y-48000I-50J0D01*
G74*
G01*
X17869Y-47550D02*
X17869Y-47950D01*
X17869Y-47950D02*
X18469Y-47950D01*
X18469Y-47950D02*
X18469Y-47550D01*
X18469Y-47150D02*
X18469Y-46750D01*
X18469Y-46750D02*
X17869Y-46750D01*
X17869Y-46750D02*
X17869Y-47150D01*
G54D12*
X17925Y-48094D02*
X17925Y-50062D01*
X19185Y-50062D02*
X19185Y-48094D01*
X17944Y-50062D02*
X19185Y-50062D01*
X17925Y-48094D02*
X19185Y-48094D01*
X20208Y-54885D02*
X20208Y-56854D01*
X21468Y-56854D02*
X21468Y-54885D01*
X20228Y-56854D02*
X21468Y-56854D01*
X20208Y-54885D02*
X21468Y-54885D01*
G54D13*
X19022Y-55006D02*
X19041Y-55025D01*
X19097Y-55044D01*
X19134Y-55044D01*
X19191Y-55025D01*
X19228Y-54988D01*
X19247Y-54950D01*
X19266Y-54875D01*
X19266Y-54819D01*
X19247Y-54744D01*
X19228Y-54706D01*
X19191Y-54669D01*
X19134Y-54650D01*
X19097Y-54650D01*
X19041Y-54669D01*
X19022Y-54688D01*
X18684Y-54781D02*
X18684Y-55044D01*
X18778Y-54631D02*
X18872Y-54913D01*
X18628Y-54913D01*
X11157Y-41671D02*
X11157Y-42157D01*
X11128Y-42214D01*
X11100Y-42242D01*
X11042Y-42271D01*
X10928Y-42271D01*
X10871Y-42242D01*
X10842Y-42214D01*
X10814Y-42157D01*
X10814Y-41671D01*
X10271Y-41671D02*
X10385Y-41671D01*
X10442Y-41700D01*
X10471Y-41728D01*
X10528Y-41814D01*
X10557Y-41928D01*
X10557Y-42157D01*
X10528Y-42214D01*
X10500Y-42242D01*
X10442Y-42271D01*
X10328Y-42271D01*
X10271Y-42242D01*
X10242Y-42214D01*
X10214Y-42157D01*
X10214Y-42014D01*
X10242Y-41957D01*
X10271Y-41928D01*
X10328Y-41900D01*
X10442Y-41900D01*
X10500Y-41928D01*
X10528Y-41957D01*
X10557Y-42014D01*
X11049Y-35976D02*
X11049Y-36454D01*
X11021Y-36510D01*
X10993Y-36539D01*
X10937Y-36567D01*
X10824Y-36567D01*
X10768Y-36539D01*
X10740Y-36510D01*
X10712Y-36454D01*
X10712Y-35976D01*
X10487Y-35976D02*
X10121Y-35976D01*
X10318Y-36201D01*
X10234Y-36201D01*
X10178Y-36229D01*
X10150Y-36257D01*
X10121Y-36314D01*
X10121Y-36454D01*
X10150Y-36510D01*
X10178Y-36539D01*
X10234Y-36567D01*
X10403Y-36567D01*
X10459Y-36539D01*
X10487Y-36510D01*
X19565Y-46440D02*
X19584Y-46459D01*
X19640Y-46478D01*
X19678Y-46478D01*
X19734Y-46459D01*
X19771Y-46421D01*
X19790Y-46384D01*
X19809Y-46309D01*
X19809Y-46253D01*
X19790Y-46178D01*
X19771Y-46140D01*
X19734Y-46103D01*
X19678Y-46084D01*
X19640Y-46084D01*
X19584Y-46103D01*
X19565Y-46121D01*
X19190Y-46478D02*
X19415Y-46478D01*
X19303Y-46478D02*
X19303Y-46084D01*
X19340Y-46140D01*
X19378Y-46178D01*
X19415Y-46196D01*
X18165Y-46140D02*
X18184Y-46159D01*
X18240Y-46178D01*
X18278Y-46178D01*
X18334Y-46159D01*
X18371Y-46121D01*
X18390Y-46084D01*
X18409Y-46009D01*
X18409Y-45953D01*
X18390Y-45878D01*
X18371Y-45840D01*
X18334Y-45803D01*
X18278Y-45784D01*
X18240Y-45784D01*
X18184Y-45803D01*
X18165Y-45821D01*
X18015Y-45821D02*
X17996Y-45803D01*
X17959Y-45784D01*
X17865Y-45784D01*
X17828Y-45803D01*
X17809Y-45821D01*
X17790Y-45859D01*
X17790Y-45896D01*
X17809Y-45953D01*
X18034Y-46178D01*
X17790Y-46178D01*
X18906Y-50276D02*
X18906Y-50595D01*
X18887Y-50632D01*
X18868Y-50651D01*
X18831Y-50670D01*
X18756Y-50670D01*
X18718Y-50651D01*
X18700Y-50632D01*
X18681Y-50595D01*
X18681Y-50276D01*
X18437Y-50445D02*
X18475Y-50426D01*
X18493Y-50407D01*
X18512Y-50370D01*
X18512Y-50351D01*
X18493Y-50314D01*
X18475Y-50295D01*
X18437Y-50276D01*
X18362Y-50276D01*
X18325Y-50295D01*
X18306Y-50314D01*
X18287Y-50351D01*
X18287Y-50370D01*
X18306Y-50407D01*
X18325Y-50426D01*
X18362Y-50445D01*
X18437Y-50445D01*
X18475Y-50464D01*
X18493Y-50482D01*
X18512Y-50520D01*
X18512Y-50595D01*
X18493Y-50632D01*
X18475Y-50651D01*
X18437Y-50670D01*
X18362Y-50670D01*
X18325Y-50651D01*
X18306Y-50632D01*
X18287Y-50595D01*
X18287Y-50520D01*
X18306Y-50482D01*
X18325Y-50464D01*
X18362Y-50445D01*
G54D12*
X21326Y-54402D02*
X21326Y-54721D01*
X21307Y-54758D01*
X21288Y-54777D01*
X21251Y-54796D01*
X21176Y-54796D01*
X21138Y-54777D01*
X21119Y-54758D01*
X21101Y-54721D01*
X21101Y-54402D01*
X20707Y-54796D02*
X20932Y-54796D01*
X20819Y-54796D02*
X20819Y-54402D01*
X20857Y-54458D01*
X20894Y-54496D01*
X20932Y-54514D01*
X20332Y-54796D02*
X20557Y-54796D01*
X20444Y-54796D02*
X20444Y-54402D01*
X20482Y-54458D01*
X20519Y-54496D01*
X20557Y-54514D01*
%LPC*%
G54D11*
X23123Y-32924D02*
X23180Y-32943D01*
X23198Y-32962D01*
X23217Y-32999D01*
X23217Y-33055D01*
X23198Y-33093D01*
X23180Y-33112D01*
X23142Y-33130D01*
X22992Y-33130D01*
X22992Y-32737D01*
X23123Y-32737D01*
X23161Y-32755D01*
X23180Y-32774D01*
X23198Y-32812D01*
X23198Y-32849D01*
X23180Y-32887D01*
X23161Y-32905D01*
X23123Y-32924D01*
X22992Y-32924D01*
X23555Y-33130D02*
X23555Y-32924D01*
X23536Y-32887D01*
X23498Y-32868D01*
X23423Y-32868D01*
X23386Y-32887D01*
X23555Y-33112D02*
X23517Y-33130D01*
X23423Y-33130D01*
X23386Y-33112D01*
X23367Y-33074D01*
X23367Y-33037D01*
X23386Y-32999D01*
X23423Y-32980D01*
X23517Y-32980D01*
X23555Y-32962D01*
X23911Y-33112D02*
X23873Y-33130D01*
X23798Y-33130D01*
X23761Y-33112D01*
X23742Y-33093D01*
X23723Y-33055D01*
X23723Y-32943D01*
X23742Y-32905D01*
X23761Y-32887D01*
X23798Y-32868D01*
X23873Y-32868D01*
X23911Y-32887D01*
X24079Y-33130D02*
X24079Y-32737D01*
X24117Y-32980D02*
X24229Y-33130D01*
X24229Y-32868D02*
X24079Y-33018D01*
X24679Y-33112D02*
X24736Y-33130D01*
X24829Y-33130D01*
X24867Y-33112D01*
X24886Y-33093D01*
X24904Y-33055D01*
X24904Y-33018D01*
X24886Y-32980D01*
X24867Y-32962D01*
X24829Y-32943D01*
X24754Y-32924D01*
X24717Y-32905D01*
X24698Y-32887D01*
X24679Y-32849D01*
X24679Y-32812D01*
X24698Y-32774D01*
X24717Y-32755D01*
X24754Y-32737D01*
X24848Y-32737D01*
X24904Y-32755D01*
X25129Y-33130D02*
X25092Y-33112D01*
X25073Y-33093D01*
X25054Y-33055D01*
X25054Y-32943D01*
X25073Y-32905D01*
X25092Y-32887D01*
X25129Y-32868D01*
X25186Y-32868D01*
X25223Y-32887D01*
X25242Y-32905D01*
X25261Y-32943D01*
X25261Y-33055D01*
X25242Y-33093D01*
X25223Y-33112D01*
X25186Y-33130D01*
X25129Y-33130D01*
X25486Y-33130D02*
X25448Y-33112D01*
X25429Y-33074D01*
X25429Y-32737D01*
X25804Y-33130D02*
X25804Y-32737D01*
X25804Y-33112D02*
X25767Y-33130D01*
X25692Y-33130D01*
X25654Y-33112D01*
X25636Y-33093D01*
X25617Y-33055D01*
X25617Y-32943D01*
X25636Y-32905D01*
X25654Y-32887D01*
X25692Y-32868D01*
X25767Y-32868D01*
X25804Y-32887D01*
X26142Y-33112D02*
X26104Y-33130D01*
X26029Y-33130D01*
X25992Y-33112D01*
X25973Y-33074D01*
X25973Y-32924D01*
X25992Y-32887D01*
X26029Y-32868D01*
X26104Y-32868D01*
X26142Y-32887D01*
X26160Y-32924D01*
X26160Y-32962D01*
X25973Y-32999D01*
X26329Y-33130D02*
X26329Y-32868D01*
X26329Y-32943D02*
X26348Y-32905D01*
X26367Y-32887D01*
X26404Y-32868D01*
X26442Y-32868D01*
X26873Y-33130D02*
X26873Y-32737D01*
X27004Y-33018D01*
X27135Y-32737D01*
X27135Y-33130D01*
X27492Y-33130D02*
X27492Y-32924D01*
X27473Y-32887D01*
X27435Y-32868D01*
X27360Y-32868D01*
X27323Y-32887D01*
X27492Y-33112D02*
X27454Y-33130D01*
X27360Y-33130D01*
X27323Y-33112D01*
X27304Y-33074D01*
X27304Y-33037D01*
X27323Y-32999D01*
X27360Y-32980D01*
X27454Y-32980D01*
X27492Y-32962D01*
X27660Y-33112D02*
X27698Y-33130D01*
X27773Y-33130D01*
X27810Y-33112D01*
X27829Y-33074D01*
X27829Y-33055D01*
X27810Y-33018D01*
X27773Y-32999D01*
X27717Y-32999D01*
X27679Y-32980D01*
X27660Y-32943D01*
X27660Y-32924D01*
X27679Y-32887D01*
X27717Y-32868D01*
X27773Y-32868D01*
X27810Y-32887D01*
X27998Y-33130D02*
X27998Y-32737D01*
X28035Y-32980D02*
X28148Y-33130D01*
X28148Y-32868D02*
X27998Y-33018D01*
G54D16*
X11299Y-75500D03*
G54D17*
X15305Y-32844D03*
X14206Y-65549D03*
G54D18*
X18283Y-53964D03*
X19583Y-53964D03*
G54D19*
X17673Y-23515D03*
G54D20*
X17673Y-24515D03*
X16673Y-23515D03*
X16673Y-24515D03*
X15673Y-23515D03*
X15673Y-24515D03*
X14673Y-23515D03*
X14673Y-24515D03*
X13673Y-23515D03*
X13673Y-24515D03*
X12673Y-23515D03*
X12673Y-24515D03*
X11673Y-23515D03*
X11673Y-24515D03*
X10673Y-23515D03*
X10673Y-24515D03*
G54D21*
X16251Y-43756D03*
X15751Y-43756D03*
X15251Y-43756D03*
X14751Y-43756D03*
X14251Y-43756D03*
X13751Y-43756D03*
X13251Y-43756D03*
X12751Y-43756D03*
X12251Y-43756D03*
X11751Y-43756D03*
X11751Y-39956D03*
X12251Y-39956D03*
X12751Y-39956D03*
X13251Y-39956D03*
X13751Y-39956D03*
X14251Y-39956D03*
X14751Y-39956D03*
X15251Y-39956D03*
X15751Y-39956D03*
X16251Y-39956D03*
X16251Y-38610D03*
X15751Y-38610D03*
X15251Y-38610D03*
X14751Y-38610D03*
X14251Y-38610D03*
X13751Y-38610D03*
X13251Y-38610D03*
X12751Y-38610D03*
X12251Y-38610D03*
X11751Y-38610D03*
X11751Y-34810D03*
X12251Y-34810D03*
X12751Y-34810D03*
X13251Y-34810D03*
X13751Y-34810D03*
X14251Y-34810D03*
X14751Y-34810D03*
X15251Y-34810D03*
X15751Y-34810D03*
X16251Y-34810D03*
G54D22*
X19500Y-47125D03*
X19500Y-47875D03*
X18169Y-47725D03*
X18169Y-46975D03*
G54D19*
X20393Y-57551D03*
G54D20*
X20393Y-58551D03*
G54D19*
X11690Y-26692D03*
G54D20*
X10690Y-26692D03*
G54D19*
X11700Y-27783D03*
G54D20*
X10700Y-27783D03*
G54D19*
X17647Y-51407D03*
G54D20*
X18647Y-51407D03*
X19647Y-51407D03*
G54D19*
X20429Y-60850D03*
G54D20*
X20393Y-61850D03*
X20429Y-62850D03*
G54D19*
X16732Y-28840D03*
G54D20*
X16732Y-27840D03*
G54D19*
X13025Y-75127D03*
G54D20*
X14025Y-75127D03*
X15025Y-75127D03*
G54D19*
X19665Y-27685D03*
G54D20*
X19665Y-26685D03*
G54D19*
X14224Y-30059D03*
X11700Y-28834D03*
G54D20*
X10700Y-28834D03*
G54D19*
X18145Y-33051D03*
G54D20*
X18145Y-32051D03*
G54D19*
X19665Y-23596D03*
G54D20*
X19665Y-24596D03*
X19665Y-25596D03*
G54D23*
X18082Y-49570D03*
X18397Y-49570D03*
X18712Y-49570D03*
X19027Y-49570D03*
X18082Y-48594D03*
X18397Y-48594D03*
X18712Y-48594D03*
X19027Y-48594D03*
G54D19*
X11940Y-70960D03*
X15944Y-57862D03*
G54D20*
X16944Y-57862D03*
G54D19*
X20397Y-35161D03*
G54D20*
X19397Y-35161D03*
G54D19*
X20389Y-34090D03*
G54D20*
X19389Y-34090D03*
G54D16*
X20600Y-22900D03*
G54D23*
X20366Y-56362D03*
X20681Y-56362D03*
X20996Y-56362D03*
X21311Y-56362D03*
X20366Y-55385D03*
X20681Y-55385D03*
X20996Y-55385D03*
X21311Y-55385D03*
G54D19*
X10988Y-25578D03*
G54D20*
X11988Y-25578D03*
X12988Y-25578D03*
X13988Y-25578D03*
G54D19*
X13807Y-26574D03*
G54D20*
X12807Y-26574D03*
M02*
