G04 (created by PCBNEW (2013-mar-13)-testing) date Fri 03 May 2013 14:03:15 BST*
%MOIN*%
G04 Gerber Fmt 3.4, Leading zero omitted, Abs format*
%FSLAX34Y34*%
G01*
G70*
G90*
G04 APERTURE LIST*
%ADD10C,0.006*%
%ADD11C,0.00984252*%
%ADD12C,0.00590551*%
G04 APERTURE END LIST*
G54D10*
G54D11*
X22939Y-35237D02*
X22939Y-34843D01*
X23089Y-34843D01*
X23127Y-34862D01*
X23145Y-34880D01*
X23164Y-34918D01*
X23164Y-34974D01*
X23145Y-35012D01*
X23127Y-35030D01*
X23089Y-35049D01*
X22939Y-35049D01*
X23558Y-35199D02*
X23539Y-35218D01*
X23483Y-35237D01*
X23445Y-35237D01*
X23389Y-35218D01*
X23352Y-35180D01*
X23333Y-35143D01*
X23314Y-35068D01*
X23314Y-35012D01*
X23333Y-34937D01*
X23352Y-34899D01*
X23389Y-34862D01*
X23445Y-34843D01*
X23483Y-34843D01*
X23539Y-34862D01*
X23558Y-34880D01*
X23858Y-35030D02*
X23914Y-35049D01*
X23933Y-35068D01*
X23952Y-35105D01*
X23952Y-35162D01*
X23933Y-35199D01*
X23914Y-35218D01*
X23877Y-35237D01*
X23727Y-35237D01*
X23727Y-34843D01*
X23858Y-34843D01*
X23895Y-34862D01*
X23914Y-34880D01*
X23933Y-34918D01*
X23933Y-34955D01*
X23914Y-34993D01*
X23895Y-35012D01*
X23858Y-35030D01*
X23727Y-35030D01*
X24420Y-35030D02*
X24551Y-35030D01*
X24608Y-35237D02*
X24420Y-35237D01*
X24420Y-34843D01*
X24608Y-34843D01*
X24945Y-35237D02*
X24945Y-34843D01*
X24945Y-35218D02*
X24908Y-35237D01*
X24833Y-35237D01*
X24795Y-35218D01*
X24776Y-35199D01*
X24758Y-35162D01*
X24758Y-35049D01*
X24776Y-35012D01*
X24795Y-34993D01*
X24833Y-34974D01*
X24908Y-34974D01*
X24945Y-34993D01*
X25301Y-34974D02*
X25301Y-35293D01*
X25283Y-35330D01*
X25264Y-35349D01*
X25226Y-35368D01*
X25170Y-35368D01*
X25133Y-35349D01*
X25301Y-35218D02*
X25264Y-35237D01*
X25189Y-35237D01*
X25151Y-35218D01*
X25133Y-35199D01*
X25114Y-35162D01*
X25114Y-35049D01*
X25133Y-35012D01*
X25151Y-34993D01*
X25189Y-34974D01*
X25264Y-34974D01*
X25301Y-34993D01*
X25639Y-35218D02*
X25601Y-35237D01*
X25526Y-35237D01*
X25489Y-35218D01*
X25470Y-35180D01*
X25470Y-35030D01*
X25489Y-34993D01*
X25526Y-34974D01*
X25601Y-34974D01*
X25639Y-34993D01*
X25658Y-35030D01*
X25658Y-35068D01*
X25470Y-35105D01*
X25808Y-35218D02*
X25845Y-35237D01*
X25920Y-35237D01*
X25958Y-35218D01*
X25976Y-35180D01*
X25976Y-35162D01*
X25958Y-35124D01*
X25920Y-35105D01*
X25864Y-35105D01*
X25826Y-35087D01*
X25808Y-35049D01*
X25808Y-35030D01*
X25826Y-34993D01*
X25864Y-34974D01*
X25920Y-34974D01*
X25958Y-34993D01*
G54D12*
X15799Y-57421D02*
X15811Y-57421D01*
X15799Y-45059D02*
X15799Y-57421D01*
X9901Y-45059D02*
X9901Y-45007D01*
X15791Y-45059D02*
X9901Y-45059D01*
X15787Y-57417D02*
X15791Y-57417D01*
X21712Y-21791D02*
X9901Y-21791D01*
X21712Y-76909D02*
X21712Y-21791D01*
X9901Y-76909D02*
X21712Y-76909D01*
X9901Y-57421D02*
X9901Y-76909D01*
X15807Y-57421D02*
X9901Y-57421D01*
X9901Y-21791D02*
X9901Y-45019D01*
M02*
