M48
;DRILL file {Pcbnew (2013-mar-13)-testing} date Fri 03 May 2013 13:48:34 BST
;FORMAT={-:-/ absolute / metric / decimal}
FMAT,2
METRIC,TZ
T1C0.300
T2C1.016
%
G90
G05
M71
T1
X26.813Y-90.243
X26.89Y-92.31
X27.474Y-94.532
X28.026Y-90.874
X28.08Y-93.794
X28.097Y-96.494
X28.439Y-99.179
X28.551Y-92.76
X28.844Y-95.656
X31.858Y-84.966
X31.972Y-96.793
X32.047Y-93.775
X32.291Y-95.345
X32.31Y-104.51
X32.806Y-71.556
X32.975Y-102.76
X33.025Y-89.456
X33.123Y-73.117
X33.362Y-108.131
X33.487Y-90.356
X33.748Y-74.717
X33.79Y-82.707
X33.918Y-86.658
X33.983Y-91.206
X34.374Y-72.831
X34.426Y-80.891
X34.771Y-76.076
X35.497Y-87.305
X36.021Y-95.673
X36.267Y-94.723
X36.9Y-65.725
X37.018Y-94.13
X37.133Y-71.405
X37.623Y-69.621
X37.825Y-64.675
X38.299Y-95.83
X39.606Y-75.135
X39.645Y-95.233
X39.746Y-73.278
X39.907Y-76.983
X40.915Y-66.222
X41.018Y-70.912
X41.105Y-78.662
X41.41Y-116.385
X41.9Y-125.63
X42.02Y-124.48
X42.965Y-105.538
X42.971Y-99.096
X42.978Y-110.209
X43.022Y-103.32
X43.022Y-108.293
X43.117Y-98.081
X43.225Y-116.575
X43.38Y-115.224
X43.994Y-83.305
X44.02Y-87.48
X44.031Y-107.068
X44.031Y-110.495
X44.13Y-127.27
X44.135Y-137.496
X44.17Y-149.
X44.442Y-120.9
X44.52Y-119.87
X44.75Y-122.67
X44.97Y-102.26
X45.427Y-95.176
X45.508Y-93.318
X45.9Y-118.075
X46.1Y-77.47
X46.28Y-75.87
X46.512Y-90.816
X46.948Y-88.625
X47.09Y-146.58
X47.1Y-147.79
X47.17Y-145.14
X47.266Y-113.903
X47.668Y-100.497
X47.7Y-120.575
X47.7Y-138.85
X47.75Y-134.3
X47.79Y-119.28
X48.05Y-75.87
X48.19Y-90.9
X48.71Y-75.05
X48.84Y-134.51
X48.89Y-138.87
X48.894Y-113.537
X49.721Y-133.057
X49.73Y-79.07
X50.31Y-123.15
X50.464Y-113.903
X50.81Y-111.64
X50.87Y-121.448
X51.645Y-81.637
X51.74Y-113.54
X51.84Y-110.65
X52.45Y-116.44
X52.68Y-115.29
X52.68Y-127.27
X52.7Y-112.53
X54.Y-129.01
X54.01Y-127.39
T2
X27.11Y-59.73
X27.11Y-62.27
X27.155Y-67.8
X27.18Y-70.57
X27.18Y-73.24
X27.91Y-64.97
X29.65Y-59.73
X29.65Y-62.27
X29.695Y-67.8
X29.72Y-70.57
X29.72Y-73.24
X30.33Y-180.24
X30.45Y-64.97
X32.19Y-59.73
X32.19Y-62.27
X32.53Y-67.5
X32.99Y-64.97
X33.085Y-190.825
X34.73Y-59.73
X34.73Y-62.27
X35.07Y-67.5
X35.53Y-64.97
X35.625Y-190.825
X36.13Y-76.35
X37.27Y-59.73
X37.27Y-62.27
X38.165Y-190.825
X39.81Y-59.73
X39.81Y-62.27
X40.5Y-146.97
X42.35Y-59.73
X42.35Y-62.27
X42.5Y-70.715
X42.5Y-73.255
X43.04Y-146.97
X44.825Y-130.575
X44.89Y-59.73
X44.89Y-62.27
X46.09Y-81.41
X46.09Y-83.95
X47.365Y-130.575
X49.25Y-86.59
X49.27Y-89.31
X49.905Y-130.575
X49.95Y-59.935
X49.95Y-62.475
X49.95Y-65.015
X49.95Y-67.78
X49.95Y-70.32
X51.79Y-86.59
X51.8Y-146.18
X51.8Y-148.72
X51.8Y-157.1
X51.81Y-89.31
X51.89Y-154.56
X51.89Y-159.64
T0
M30
